<svg viewBox="0 0 1071 894" fill="none" xmlns="http://www.w3.org/2000/svg">
<path opacity="0.1" d="M321.21 31.2701C351.99 3.84007 400.32 -1.72993 444.3 0.430072C582.46 7.30007 707.17 73.9901 815.04 149.43C854.09 176.74 892.54 206.17 917.89 243.78C969.49 320.35 954.19 426.41 882.43 489.48C858.02 510.94 828.43 527.39 798.04 541.98C744.04 567.91 685.73 588.72 624.42 594.65C580.69 598.87 536.42 595.44 492.96 589.54C371.5 573.08 252.31 536.63 152.4 474.35C108.58 447.02 67.27 413.05 49.21 368.83C31.15 324.61 42.71 268.63 87.5 242.43C106.01 231.61 128.14 226.72 149.8 222.13C181.69 215.37 214.09 208.71 242.86 194.98C272.58 180.79 307.78 153.35 301.86 121.98C295.5 88.2601 290.5 58.6301 321.21 31.2701Z" fill="#2271FF"/>
<path opacity="0.1" d="M174.08 160.9C191.477 160.9 205.58 146.797 205.58 129.4C205.58 112.003 191.477 97.8999 174.08 97.8999C156.683 97.8999 142.58 112.003 142.58 129.4C142.58 146.797 156.683 160.9 174.08 160.9Z" fill="#2271FF"/>
<path opacity="0.1" d="M108.09 73.8999C118.86 73.8999 127.59 65.1695 127.59 54.3999C127.59 43.6304 118.86 34.8999 108.09 34.8999C97.3204 34.8999 88.59 43.6304 88.59 54.3999C88.59 65.1695 97.3204 73.8999 108.09 73.8999Z" fill="#2271FF"/>
<path opacity="0.1" d="M925.57 126.4C932.197 126.4 937.57 121.027 937.57 114.4C937.57 107.772 932.197 102.4 925.57 102.4C918.943 102.4 913.57 107.772 913.57 114.4C913.57 121.027 918.943 126.4 925.57 126.4Z" fill="#2271FF"/>
<path d="M214 487.31L213.63 507.26L210.67 668.97L185.33 728.31L98 729.31V496.5L189.14 489.28L214 487.31Z" fill="#5F5D7E"/>
<path opacity="0.1" d="M214 487.31L213.63 507.26L210.67 668.97L185.33 728.31L98 729.31V496.5L189.14 489.28L214 487.31Z" fill="black"/>
<path d="M214 487.31L213.63 507.26L210.67 668.97L185.33 728.31L192 507.64L191.98 507.5L189.14 489.28L214 487.31Z" fill="#5F5D7E"/>
<path opacity="0.1" d="M189.14 489.28L214 487.31L213.63 507.26L191.98 507.5L98 508.55V496.5L189.14 489.28Z" fill="black"/>
<path d="M999 496.5V727.97H978.67L897.33 668.64V489.97L970 483.14L974.46 485.19L978.67 487.13L999 496.5Z" fill="#5F5D7E"/>
<path opacity="0.1" d="M999 485.19H978.67V727.97H999V485.19Z" fill="black"/>
<path opacity="0.1" d="M999 485.19V498.5L978.67 498.73L897.33 499.63V489.97L970 483.14L974.46 485.19L978.67 487.13V485.19H999Z" fill="black"/>
<path d="M999 477.64V496.5L0 507.64V483.64L94 464.64L912 458.64L999 477.64Z" fill="#5F5D7E"/>
<path opacity="0.1" d="M999 477.64V496.5L0 507.64V483.64L999 477.64Z" fill="black"/>
<path d="M692.6 194.97H388.32C375.717 194.97 365.5 205.187 365.5 217.79V443.84C365.5 456.443 375.717 466.66 388.32 466.66H692.6C705.203 466.66 715.42 456.443 715.42 443.84V217.79C715.42 205.187 705.203 194.97 692.6 194.97Z" fill="#474157"/>
<path d="M687.78 219.48H393.66V441.11H687.78V219.48Z" fill="white"/>
<path d="M546.82 212.64C549.482 212.64 551.64 210.482 551.64 207.82C551.64 205.158 549.482 203 546.82 203C544.158 203 542 205.158 542 207.82C542 210.482 544.158 212.64 546.82 212.64Z" fill="#E6E8EC"/>
<path opacity="0.1" d="M699.19 281.11L695.47 281.9C696.495 281.522 697.544 281.211 698.61 280.97L699.19 281.11Z" fill="black"/>
<path opacity="0.1" d="M767.5 469.35C767.28 469.35 767.07 469.3 766.86 469.26C767.077 469.237 767.297 469.268 767.5 469.35V469.35Z" fill="black"/>
<path opacity="0.1" d="M636.68 502.9C636.68 502.9 645.18 506.15 654.18 497.15C663.18 488.15 636.68 502.9 636.68 502.9Z" fill="black"/>
<g opacity="0.1">
<path opacity="0.1" d="M693.94 279.97C695.59 279.642 697.26 279.431 698.94 279.34C696.605 279.197 694.261 279.271 691.94 279.56L693.94 279.97Z" fill="black"/>
<path opacity="0.1" d="M744.08 462.79C741.84 460.68 739.85 458.24 736.97 456.85C733.29 455.07 728.84 455.31 724.64 455.15C719.406 454.958 714.22 454.071 709.22 452.51C707.766 452.15 706.403 451.489 705.22 450.57C702.84 448.47 703.01 445.09 703.22 442.12C703.738 435.285 703.712 428.42 703.14 421.59C702.73 416.77 701.44 411.16 696.49 409.1C693.96 408.04 690.93 408.17 688.49 406.97C683.93 404.71 683.49 399.15 683.68 394.53C683.887 388.683 684.09 382.84 684.29 377C684.46 372.21 684.59 367.25 682.52 362.83C680.25 357.98 675.42 353.96 674.93 348.72C674.52 344.35 677.28 340.26 678.25 335.95C680.19 327.28 673.67 317.79 664.08 315.3C661.08 314.52 657.86 314.36 654.87 313.48C651.88 312.6 648.98 310.7 648.36 307.98C647.74 305.26 649.51 302.62 651.78 300.79C654.05 298.96 656.84 297.7 659.22 295.97C662.658 293.535 665.174 290.012 666.36 285.97C667.03 283.55 667.36 280.76 669.51 279.2C670.743 278.436 672.16 278.021 673.61 278C672.72 278 671.83 277.95 670.95 277.95C668.86 277.95 666.62 278.06 664.95 279.2C662.74 280.76 662.46 283.55 661.8 285.97C660.606 290.011 658.088 293.533 654.65 295.97C652.28 297.7 649.49 298.97 647.22 300.79C644.95 302.61 643.22 305.31 643.79 307.98C644.36 310.65 647.32 312.59 650.31 313.48C653.3 314.37 656.5 314.48 659.52 315.3C669.11 317.79 675.62 327.3 673.68 335.95C672.68 340.26 669.95 344.35 670.37 348.72C670.86 353.96 675.69 357.98 677.96 362.83C680.03 367.25 679.9 372.21 679.73 377C679.523 382.84 679.32 388.683 679.12 394.53C678.96 399.15 679.36 404.71 683.92 406.97C686.36 408.17 689.4 408.04 691.92 409.1C696.86 411.16 698.16 416.77 698.56 421.59C699.132 428.42 699.158 435.285 698.64 442.12C698.41 445.12 698.25 448.47 700.64 450.57C701.823 451.489 703.186 452.15 704.64 452.51C709.64 454.072 714.825 454.959 720.06 455.15C724.26 455.31 728.7 455.07 732.39 456.85C735.26 458.24 737.26 460.68 739.5 462.79C745.889 468.642 754.037 472.211 762.67 472.94C763.787 473.073 764.917 473.029 766.02 472.81C757.834 471.865 750.155 468.358 744.08 462.79V462.79Z" fill="black"/>
</g>
<path opacity="0.1" d="M588.93 432.63C588.93 432.63 580.93 439.97 582.1 442.97C583.27 445.97 588.93 432.63 588.93 432.63Z" fill="black"/>
<path opacity="0.1" d="M170.24 473.6C195.115 473.6 215.28 472.306 215.28 470.71C215.28 469.114 195.115 467.82 170.24 467.82C145.365 467.82 125.2 469.114 125.2 470.71C125.2 472.306 145.365 473.6 170.24 473.6Z" fill="black"/>
<path d="M208.04 359.25C207.081 360.565 206.313 362.009 205.76 363.54C205.62 363.92 205.48 364.34 205.34 364.75C205.088 364.63 204.823 364.54 204.55 364.48C203.384 364.188 202.179 364.083 200.98 364.17C200.98 363.71 201.04 363.17 201.05 362.71C201.2 357.44 200.58 350.09 195.55 353.2C190.73 356.2 194.17 361.2 197.28 364.41L198.08 365.19C195.24 367.19 194.7 371.92 194.23 376.83C193.76 381.74 189.59 387.12 186.82 390.17C186.54 390.48 186.29 390.76 186.04 391.02C184.922 390.124 183.625 389.476 182.238 389.119C180.85 388.763 179.402 388.705 177.99 388.95C177.88 388.52 177.75 388.07 177.62 387.59C175.38 379.51 170.73 365.5 164.8 362.43L165.58 361.43C168.1 358.13 170.94 353.24 166.75 351.98C162.56 350.72 162.18 356.23 162.41 360.35C162.41 360.87 162.49 361.35 162.53 361.81C161.693 361.85 160.873 362.061 160.12 362.429C159.367 362.797 158.696 363.314 158.15 363.95L157.5 363.19C154.1 359.19 147.87 352.82 145.98 357.63C144.22 362.11 149.71 367.92 153.57 371.29L153.81 371.5C151.22 382.03 162.5 390.63 168.62 394.35L169.41 394.83C161.01 404.73 155.82 423.28 155.82 423.28L179.34 427.48C179.34 427.48 194.94 414.03 192.94 401.39H193.1C208.69 398.27 212.23 381.65 209.8 371.78L210.08 371.67C212.918 370.505 215.406 368.624 217.3 366.21C221.66 360.14 212.5 353.3 208.04 359.25Z" fill="#2271FF"/>
<path opacity="0.1" d="M208.04 359.25C207.081 360.565 206.313 362.009 205.76 363.54C205.62 363.92 205.48 364.34 205.34 364.75C205.088 364.63 204.823 364.54 204.55 364.48C203.384 364.188 202.179 364.083 200.98 364.17C200.98 363.71 201.04 363.17 201.05 362.71C201.2 357.44 200.58 350.09 195.55 353.2C190.73 356.2 194.17 361.2 197.28 364.41L198.08 365.19C195.24 367.19 194.7 371.92 194.23 376.83C193.76 381.74 189.59 387.12 186.82 390.17C186.54 390.48 186.29 390.76 186.04 391.02C184.922 390.124 183.625 389.476 182.238 389.119C180.85 388.763 179.402 388.705 177.99 388.95C177.88 388.52 177.75 388.07 177.62 387.59C175.38 379.51 170.73 365.5 164.8 362.43L165.58 361.43C168.1 358.13 170.94 353.24 166.75 351.98C162.56 350.72 162.18 356.23 162.41 360.35C162.41 360.87 162.49 361.35 162.53 361.81C161.693 361.85 160.873 362.061 160.12 362.429C159.367 362.797 158.696 363.314 158.15 363.95L157.5 363.19C154.1 359.19 147.87 352.82 145.98 357.63C144.22 362.11 149.71 367.92 153.57 371.29L153.81 371.5C151.22 382.03 162.5 390.63 168.62 394.35L169.41 394.83C161.01 404.73 155.82 423.28 155.82 423.28L179.34 427.48C179.34 427.48 194.94 414.03 192.94 401.39H193.1C208.69 398.27 212.23 381.65 209.8 371.78L210.08 371.67C212.918 370.505 215.406 368.624 217.3 366.21C221.66 360.14 212.5 353.3 208.04 359.25Z" fill="black"/>
<path d="M161.22 366.03L158.5 374.08C158.5 374.08 156.97 373 155.04 371.3C151.18 367.93 145.69 362.12 147.45 357.64C149.34 352.83 155.57 359.18 158.97 363.2C160.31 364.79 161.22 366.03 161.22 366.03Z" fill="#2271FF"/>
<path d="M167.02 361.44C166.183 362.537 165.289 363.588 164.34 364.59C164.106 363.189 163.942 361.777 163.85 360.36C163.62 356.24 164.06 350.77 168.19 351.99C172.32 353.21 169.5 358.14 167.02 361.44Z" fill="#2271FF"/>
<path d="M202.5 362.71C202.42 365.36 202.16 367.47 202.16 367.47C200.949 366.528 199.803 365.506 198.73 364.41C195.62 361.18 192.18 356.2 197 353.2C202.02 350.09 202.64 357.44 202.5 362.71Z" fill="#2271FF"/>
<path d="M218.74 366.18C216.839 368.593 214.344 370.471 211.5 371.63C210.713 371.971 209.904 372.262 209.08 372.5L205.84 367.95C206.183 366.447 206.631 364.97 207.18 363.53C207.733 361.999 208.501 360.555 209.46 359.24C213.96 353.3 223.1 360.14 218.74 366.18Z" fill="#2271FF"/>
<path opacity="0.1" d="M158.94 363.2C160.31 364.79 161.22 366.03 161.22 366.03L158.5 374.08C158.5 374.08 156.97 373 155.04 371.3C155.471 368.723 156.536 366.293 158.14 364.23C158.38 363.86 158.67 363.51 158.94 363.2Z" fill="black"/>
<path opacity="0.1" d="M167.02 361.44C166.183 362.537 165.289 363.588 164.34 364.59C164.106 363.189 163.942 361.777 163.85 360.36C164.994 360.379 166.103 360.757 167.02 361.44V361.44Z" fill="black"/>
<path d="M180.5 393.4L173.66 396.4C173.66 396.4 172.17 395.68 170.02 394.34C162.83 389.91 148.38 378.78 158.07 365.66C167.76 352.54 175.84 376.08 179.02 387.58C180.03 391.03 180.5 393.4 180.5 393.4Z" fill="#2271FF"/>
<path opacity="0.1" d="M198.72 364.41C199.712 363.38 201.062 362.772 202.49 362.71C202.41 365.36 202.15 367.47 202.15 367.47C200.939 366.529 199.793 365.506 198.72 364.41Z" fill="black"/>
<path opacity="0.1" d="M211.5 371.63C210.713 371.971 209.904 372.262 209.08 372.5L205.84 367.95C206.183 366.447 206.631 364.97 207.18 363.53C209.29 364.77 210.83 367.8 211.5 371.63Z" fill="black"/>
<path d="M194.5 401.36L193.35 401.56C170.42 405.05 185.79 392.68 185.79 392.68C185.79 392.68 186.79 391.73 188.22 390.17C190.99 387.12 195.15 381.77 195.63 376.83C196.35 369.4 197.18 362.43 205.95 364.48C214.6 366.49 216.25 397.01 194.5 401.36Z" fill="#2271FF"/>
<path d="M194.11 458.44H150.3V469.96H194.11V458.44Z" fill="#474157"/>
<path d="M200.58 421H143.34V461.2H200.58V421Z" fill="#474157"/>
<path opacity="0.1" d="M193.69 458.44H149.88V469.96H193.69V458.44Z" fill="black"/>
<path opacity="0.1" d="M200.4 421.01H143.16V461.21H200.4V421.01Z" fill="black"/>
<path d="M196.99 458.44H153.18V469.96H196.99V458.44Z" fill="#474157"/>
<path opacity="0.1" d="M179.06 387.63C180.06 391.07 180.54 393.44 180.54 393.44L173.7 396.44C173.7 396.44 172.21 395.72 170.06 394.38C172.74 390.95 175.76 388.38 179.06 387.63Z" fill="black"/>
<path opacity="0.1" d="M194.5 401.36L193.35 401.56C170.42 405.05 185.79 392.68 185.79 392.68C185.79 392.68 186.79 391.73 188.22 390.17C192.5 393.63 194.31 397.46 194.5 401.36Z" fill="black"/>
<path d="M157.26 423.28C157.26 423.28 170.1 377.28 188.11 391.48C206.12 405.68 180.78 427.48 180.78 427.48L157.26 423.28Z" fill="#2271FF"/>
<path opacity="0.1" d="M163.74 374.31C164.535 374.31 165.18 373.665 165.18 372.87C165.18 372.075 164.535 371.43 163.74 371.43C162.945 371.43 162.3 372.075 162.3 372.87C162.3 373.665 162.945 374.31 163.74 374.31Z" fill="black"/>
<path opacity="0.1" d="M163.62 381.04C164.415 381.04 165.06 380.395 165.06 379.6C165.06 378.805 164.415 378.16 163.62 378.16C162.825 378.16 162.18 378.805 162.18 379.6C162.18 380.395 162.825 381.04 163.62 381.04Z" fill="black"/>
<path opacity="0.1" d="M205.39 375.63C206.185 375.63 206.83 374.985 206.83 374.19C206.83 373.395 206.185 372.75 205.39 372.75C204.595 372.75 203.95 373.395 203.95 374.19C203.95 374.985 204.595 375.63 205.39 375.63Z" fill="black"/>
<path opacity="0.1" d="M171.78 410.08C172.575 410.08 173.22 409.435 173.22 408.64C173.22 407.845 172.575 407.2 171.78 407.2C170.985 407.2 170.34 407.845 170.34 408.64C170.34 409.435 170.985 410.08 171.78 410.08Z" fill="black"/>
<path opacity="0.1" d="M202.39 386.8C203.185 386.8 203.83 386.155 203.83 385.36C203.83 384.565 203.185 383.92 202.39 383.92C201.595 383.92 200.95 384.565 200.95 385.36C200.95 386.155 201.595 386.8 202.39 386.8Z" fill="black"/>
<path opacity="0.1" d="M187.51 401.68C188.305 401.68 188.95 401.035 188.95 400.24C188.95 399.445 188.305 398.8 187.51 398.8C186.715 398.8 186.07 399.445 186.07 400.24C186.07 401.035 186.715 401.68 187.51 401.68Z" fill="black"/>
<path opacity="0.1" d="M168.66 377.19C169.455 377.19 170.1 376.545 170.1 375.75C170.1 374.955 169.455 374.31 168.66 374.31C167.865 374.31 167.22 374.955 167.22 375.75C167.22 376.545 167.865 377.19 168.66 377.19Z" fill="black"/>
<path opacity="0.1" d="M201.43 379.96C202.225 379.96 202.87 379.315 202.87 378.52C202.87 377.725 202.225 377.08 201.43 377.08C200.635 377.08 199.99 377.725 199.99 378.52C199.99 379.315 200.635 379.96 201.43 379.96Z" fill="black"/>
<path opacity="0.1" d="M196.51 391.12C197.305 391.12 197.95 390.475 197.95 389.68C197.95 388.885 197.305 388.24 196.51 388.24C195.715 388.24 195.07 388.885 195.07 389.68C195.07 390.475 195.715 391.12 196.51 391.12Z" fill="black"/>
<path opacity="0.1" d="M181.38 409C182.175 409 182.82 408.355 182.82 407.56C182.82 406.765 182.175 406.12 181.38 406.12C180.585 406.12 179.94 406.765 179.94 407.56C179.94 408.355 180.585 409 181.38 409Z" fill="black"/>
<path opacity="0.1" d="M178.26 401.92C179.055 401.92 179.7 401.275 179.7 400.48C179.7 399.685 179.055 399.04 178.26 399.04C177.465 399.04 176.82 399.685 176.82 400.48C176.82 401.275 177.465 401.92 178.26 401.92Z" fill="black"/>
<path opacity="0.1" d="M170.82 385.96C171.615 385.96 172.26 385.315 172.26 384.52C172.26 383.725 171.615 383.08 170.82 383.08C170.025 383.08 169.38 383.725 169.38 384.52C169.38 385.315 170.025 385.96 170.82 385.96Z" fill="black"/>
<path opacity="0.1" d="M196.99 458.44H153.18V462.65H196.99V458.44Z" fill="black"/>
<path d="M203.46 421H146.22V461.2H203.46V421Z" fill="#474157"/>
<path opacity="0.1" d="M183.3 415.48C184.095 415.48 184.74 414.835 184.74 414.04C184.74 413.245 184.095 412.6 183.3 412.6C182.505 412.6 181.86 413.245 181.86 414.04C181.86 414.835 182.505 415.48 183.3 415.48Z" fill="black"/>
<path opacity="0.1" d="M174.66 417.28C175.455 417.28 176.1 416.635 176.1 415.84C176.1 415.045 175.455 414.4 174.66 414.4C173.865 414.4 173.22 415.045 173.22 415.84C173.22 416.635 173.865 417.28 174.66 417.28Z" fill="black"/>
<path d="M311.89 574.63C311.89 574.63 319.02 583.96 308.6 598.04C298.18 612.12 289.6 624.04 293.04 632.8C293.04 632.8 308.78 606.64 321.59 606.28C334.4 605.92 325.98 590.37 311.89 574.63Z" fill="#2271FF"/>
<path opacity="0.1" d="M311.89 574.63C312.513 575.529 313.005 576.512 313.35 577.55C325.84 592.23 332.5 605.93 320.49 606.28C309.3 606.63 295.88 626.63 292.66 631.63C292.77 632.02 292.9 632.41 293.04 632.78C293.04 632.78 308.78 606.62 321.59 606.26C334.4 605.9 325.98 590.37 311.89 574.63Z" fill="black"/>
<path d="M325.15 586.53C325.15 589.81 324.78 592.47 324.33 592.47C323.88 592.47 323.51 589.81 323.51 586.53C323.51 583.25 323.97 584.79 324.42 584.79C324.87 584.79 325.15 583.24 325.15 586.53Z" fill="#FFD037"/>
<path d="M329.7 590.45C326.82 592.02 324.31 592.97 324.09 592.57C323.87 592.17 326.03 590.57 328.92 589C331.81 587.43 330.66 588.57 330.92 589C331.18 589.43 332.59 588.88 329.7 590.45Z" fill="#FFD037"/>
<path d="M274.2 574.63C274.2 574.63 267.07 583.96 277.49 598.04C287.91 612.12 296.49 624.04 293.04 632.8C293.04 632.8 277.31 606.64 264.5 606.28C251.69 605.92 260.11 590.37 274.2 574.63Z" fill="#2271FF"/>
<path opacity="0.1" d="M274.2 574.63C273.577 575.529 273.085 576.512 272.74 577.55C260.25 592.23 253.59 605.93 265.6 606.28C276.79 606.63 290.21 626.63 293.43 631.63C293.321 632.02 293.191 632.404 293.04 632.78C293.04 632.78 277.31 606.63 264.5 606.29C251.69 605.95 260.11 590.37 274.2 574.63Z" fill="black"/>
<path d="M260.94 586.53C260.94 589.81 261.31 592.47 261.76 592.47C262.21 592.47 262.58 589.81 262.58 586.53C262.58 583.25 262.12 584.79 261.67 584.79C261.22 584.79 260.94 583.24 260.94 586.53Z" fill="#FFD037"/>
<path d="M256.39 590.45C259.27 592.02 261.78 592.97 262 592.57C262.22 592.17 260.06 590.57 257.17 589C254.28 587.43 255.43 588.57 255.17 589C254.91 589.43 253.5 588.88 256.39 590.45Z" fill="#FFD037"/>
<path opacity="0.1" d="M293.04 704.19C334.24 704.19 367.64 699.064 367.64 692.74C367.64 686.416 334.24 681.29 293.04 681.29C251.84 681.29 218.44 686.416 218.44 692.74C218.44 699.064 251.84 704.19 293.04 704.19Z" fill="#2271FF"/>
<path d="M331.44 620.24L331.08 623.15L330.58 627.27L330.38 628.98L329.87 633.1L329.66 634.82L329.16 638.93L323.5 685.73C322.99 689.91 316.16 693.16 307.93 693.16H278.21C269.97 693.16 263.21 689.91 262.65 685.73L256.93 638.93L256.43 634.82L256.22 633.1L255.71 628.98L255.51 627.27L255.01 623.15L254.65 620.24C254.36 617.88 258.05 615.88 262.72 615.88H323.38C328.03 615.88 331.73 617.88 331.44 620.24Z" fill="#65617D"/>
<path d="M331.08 623.15L330.58 627.26H255.51L255.01 623.15H331.08Z" fill="#9D9CB5"/>
<path d="M330.38 628.98L329.88 633.1H256.22L255.71 628.98H330.38Z" fill="#9D9CB5"/>
<path d="M329.66 634.81L329.16 638.93H256.93L256.43 634.81H329.66Z" fill="#9D9CB5"/>
<path d="M830 229.235C830 229.235 808.342 221.5 794.419 252.441C780.495 283.381 758.837 317.416 758.837 317.416L771.213 320.51C771.213 320.51 774.307 298.851 782.042 295.757L778.948 323.604C778.948 323.604 871.77 356.091 913.539 320.51L911.992 309.68C911.992 309.68 918.18 311.227 918.18 320.51L922.821 315.869C922.821 315.869 918.18 306.586 904.257 294.21C895.118 286.087 891.978 270.633 890.899 260.971C890.09 252.903 886.862 245.267 881.638 239.066C872.386 228.343 855.526 216.945 830 229.235Z" fill="#2F2E41"/>
<path d="M841.321 328.426C861.204 328.426 877.321 312.309 877.321 292.426C877.321 272.544 861.204 256.426 841.321 256.426C821.439 256.426 805.321 272.544 805.321 292.426C805.321 312.309 821.439 328.426 841.321 328.426Z" fill="#FFB9B9"/>
<path d="M815.321 308.426C815.321 308.426 813.321 349.426 803.321 352.426C793.321 355.426 765.321 388.426 778.321 398.426C791.321 408.426 866.321 401.426 866.321 401.426L859.321 349.426C859.321 349.426 843.321 338.426 856.321 319.426L815.321 308.426Z" fill="#FFB9B9"/>
<path d="M784.027 296.732C784.027 296.732 796.403 279.714 807.232 276.62C818.061 273.526 819.608 258.056 819.608 258.056C819.608 258.056 847.455 288.997 864.472 290.544C881.489 292.091 866.019 253.415 866.019 253.415L835.078 245.68L805.685 248.774L782.48 264.244L784.027 296.732Z" fill="#2F2E41"/>
<path d="M744.625 172.315H337V80H744.625V172.315ZM339.398 169.917H742.227V82.3978H339.398V169.917Z" fill="#3F3D56"/>
<path d="M414.928 111.171H369.37V156.729H414.928V111.171Z" fill="#2271FF"/>
<path d="M408.934 150.735H360.978V102.779H408.934V150.735ZM363.376 148.337H406.536V105.177H363.376L363.376 148.337Z" fill="#3F3D56"/>
<path d="M697.868 112.37H484.464V114.768H697.868V112.37Z" fill="#3F3D56"/>
<path d="M697.868 129.155H484.464V131.553H697.868V129.155Z" fill="#3F3D56"/>
<path d="M697.868 145.939H484.464V148.337H697.868V145.939Z" fill="#3F3D56"/>
<path d="M762.765 439.495C765.373 439.495 767.486 437.381 767.486 434.774C767.486 432.167 765.373 430.053 762.765 430.053C760.158 430.053 758.045 432.167 758.045 434.774C758.045 437.381 760.158 439.495 762.765 439.495Z" fill="#D0CDE1"/>
<path d="M589.637 414.169H488.832C486.438 414.167 484.143 413.216 482.45 411.526C480.758 409.835 479.806 407.544 479.805 405.154V366.472C479.596 366.709 479.377 366.943 479.152 367.171V405.154C479.155 407.716 480.175 410.173 481.99 411.985C483.805 413.797 486.265 414.817 488.832 414.82H589.92C589.822 414.605 589.728 414.387 589.637 414.169ZM479.805 271.19C479.806 268.8 480.758 266.508 482.45 264.818C484.143 263.128 486.438 262.177 488.832 262.174H522.42C522.358 261.956 522.299 261.742 522.243 261.523H488.832C486.265 261.527 483.805 262.546 481.99 264.358C480.175 266.171 479.155 268.627 479.152 271.19V330.491C479.377 330.719 479.593 330.953 479.805 331.19V271.19ZM615.158 278.793L594.097 262.139C593.594 261.741 592.971 261.524 592.33 261.523H573.586C573.534 261.742 573.475 261.96 573.413 262.174H592.33C592.824 262.176 593.303 262.342 593.692 262.646L614.754 279.304C614.954 279.461 615.115 279.662 615.226 279.891C615.337 280.12 615.394 280.371 615.393 280.625V377.56C615.611 377.567 615.83 377.583 616.045 377.599V280.625C616.046 280.273 615.967 279.924 615.813 279.607C615.659 279.29 615.435 279.011 615.158 278.793Z" fill="#3F3D56"/>
<path d="M614.88 279.653H597.885C597.271 279.653 596.663 279.532 596.095 279.297C595.528 279.063 595.012 278.719 594.578 278.285C594.143 277.851 593.799 277.337 593.564 276.77C593.329 276.203 593.208 275.596 593.208 274.983V262.453C593.208 262.398 593.223 262.344 593.252 262.297C593.281 262.251 593.323 262.214 593.373 262.19C593.422 262.166 593.477 262.156 593.532 262.162C593.587 262.168 593.638 262.19 593.681 262.224L615.061 279.132C615.109 279.17 615.144 279.221 615.16 279.279C615.177 279.338 615.176 279.4 615.156 279.457C615.136 279.514 615.099 279.564 615.049 279.599C615 279.634 614.94 279.653 614.88 279.653Z" fill="#E6E6E6"/>
<path d="M614.88 279.978H597.885C596.559 279.977 595.287 279.45 594.349 278.514C593.411 277.577 592.883 276.307 592.881 274.983V262.453C592.881 262.337 592.914 262.223 592.976 262.125C593.038 262.026 593.126 261.947 593.23 261.897C593.335 261.846 593.452 261.826 593.567 261.839C593.683 261.852 593.793 261.897 593.884 261.969L615.264 278.877C615.364 278.957 615.438 279.066 615.473 279.189C615.509 279.312 615.506 279.443 615.464 279.564C615.421 279.685 615.343 279.79 615.238 279.864C615.133 279.938 615.008 279.978 614.88 279.978V279.978ZM593.533 262.522V274.983C593.535 276.135 593.994 277.239 594.809 278.053C595.625 278.868 596.731 279.326 597.885 279.327H614.783L593.533 262.522Z" fill="#3F3D56"/>
<path d="M581.145 301.251H531.151C530.53 301.251 529.936 301.005 529.497 300.567C529.058 300.129 528.812 299.535 528.812 298.916C528.812 298.297 529.058 297.703 529.497 297.265C529.936 296.827 530.53 296.581 531.151 296.581H581.145C581.766 296.581 582.36 296.827 582.799 297.265C583.238 297.703 583.484 298.297 583.484 298.916C583.484 299.535 583.238 300.129 582.799 300.567C582.36 301.005 581.766 301.251 581.145 301.251Z" fill="#CCCCCC"/>
<path d="M590.793 309.131H531.151C530.53 309.131 529.936 308.885 529.497 308.447C529.058 308.01 528.812 307.416 528.812 306.796C528.812 306.177 529.058 305.583 529.497 305.145C529.936 304.707 530.53 304.461 531.151 304.461H590.793C591.414 304.461 592.008 304.707 592.447 305.145C592.886 305.583 593.132 306.177 593.132 306.796C593.132 307.416 592.886 308.01 592.447 308.447C592.008 308.885 591.414 309.131 590.793 309.131H590.793Z" fill="#CCCCCC"/>
<path d="M581.145 336.567H531.151C530.53 336.567 529.936 336.321 529.497 335.883C529.058 335.445 528.812 334.851 528.812 334.232C528.812 333.612 529.058 333.018 529.497 332.581C529.936 332.143 530.53 331.897 531.151 331.897H581.145C581.766 331.897 582.36 332.143 582.799 332.581C583.238 333.018 583.484 333.612 583.484 334.232C583.484 334.851 583.238 335.445 582.799 335.883C582.36 336.321 581.766 336.567 581.145 336.567Z" fill="#CCCCCC"/>
<path d="M590.793 344.447H531.151C530.53 344.447 529.936 344.201 529.497 343.763C529.058 343.325 528.812 342.731 528.812 342.112C528.812 341.493 529.058 340.899 529.497 340.461C529.936 340.023 530.53 339.777 531.151 339.777H590.793C591.414 339.777 592.008 340.023 592.447 340.461C592.886 340.899 593.132 341.493 593.132 342.112C593.132 342.731 592.886 343.325 592.447 343.763C592.008 344.201 591.414 344.447 590.793 344.447H590.793Z" fill="#CCCCCC"/>
<path d="M581.145 371.883H531.151C530.844 371.883 530.54 371.822 530.256 371.705C529.972 371.587 529.714 371.415 529.497 371.199C529.28 370.982 529.107 370.724 528.99 370.441C528.872 370.158 528.812 369.854 528.812 369.548C528.812 369.241 528.872 368.937 528.99 368.654C529.107 368.371 529.28 368.113 529.497 367.897C529.714 367.68 529.972 367.508 530.256 367.39C530.54 367.273 530.844 367.213 531.151 367.213H581.145C581.766 367.213 582.36 367.459 582.799 367.897C583.238 368.334 583.484 368.928 583.484 369.548C583.484 370.167 583.238 370.761 582.799 371.199C582.36 371.637 581.766 371.883 581.145 371.883V371.883Z" fill="#CCCCCC"/>
<path d="M590.793 379.763H531.151C530.844 379.763 530.54 379.702 530.256 379.585C529.972 379.468 529.714 379.296 529.497 379.079C529.28 378.862 529.107 378.605 528.99 378.321C528.872 378.038 528.812 377.735 528.812 377.428C528.812 377.121 528.872 376.818 528.99 376.534C529.107 376.251 529.28 375.994 529.497 375.777C529.714 375.56 529.972 375.388 530.256 375.271C530.54 375.153 530.844 375.093 531.151 375.093H590.793C591.1 375.093 591.405 375.153 591.688 375.271C591.972 375.388 592.23 375.56 592.447 375.777C592.664 375.994 592.837 376.251 592.954 376.534C593.072 376.818 593.132 377.121 593.132 377.428C593.132 377.735 593.072 378.038 592.954 378.321C592.837 378.605 592.664 378.862 592.447 379.079C592.23 379.296 591.972 379.468 591.688 379.585C591.405 379.702 591.1 379.763 590.793 379.763H590.793Z" fill="#CCCCCC"/>
<path d="M510.332 311.109C514.897 311.109 518.599 307.414 518.599 302.856C518.599 298.298 514.897 294.604 510.332 294.604C505.766 294.604 502.065 298.298 502.065 302.856C502.065 307.414 505.766 311.109 510.332 311.109Z" fill="#2271FF"/>
<path d="M509.513 306.004C509.327 306.005 509.146 305.945 508.997 305.833L508.988 305.826L507.045 304.343C506.955 304.274 506.879 304.188 506.822 304.09C506.765 303.992 506.728 303.884 506.713 303.771C506.698 303.659 506.706 303.545 506.735 303.435C506.764 303.326 506.815 303.223 506.884 303.133C506.953 303.044 507.039 302.968 507.137 302.911C507.236 302.855 507.344 302.818 507.457 302.803C507.569 302.789 507.684 302.796 507.793 302.825C507.903 302.855 508.005 302.906 508.095 302.975L509.354 303.938L512.327 300.065C512.396 299.975 512.482 299.9 512.581 299.843C512.679 299.787 512.787 299.75 512.899 299.735C513.012 299.72 513.126 299.728 513.235 299.757C513.345 299.786 513.447 299.837 513.537 299.906L513.538 299.906L513.519 299.931L513.538 299.906C513.72 300.045 513.838 300.25 513.868 300.477C513.898 300.703 513.837 300.933 513.698 301.114L510.2 305.667C510.119 305.772 510.015 305.857 509.896 305.915C509.777 305.974 509.646 306.004 509.513 306.003L509.513 306.004Z" fill="white"/>
<path d="M510.332 346.425C514.897 346.425 518.599 342.73 518.599 338.172C518.599 333.614 514.897 329.919 510.332 329.919C505.766 329.919 502.065 333.614 502.065 338.172C502.065 342.73 505.766 346.425 510.332 346.425Z" fill="#E6E6E6"/>
<path d="M509.513 341.32C509.327 341.32 509.146 341.26 508.997 341.149L508.988 341.142L507.045 339.658C506.863 339.519 506.744 339.314 506.714 339.087C506.684 338.861 506.746 338.631 506.885 338.45C507.024 338.269 507.23 338.15 507.457 338.12C507.684 338.09 507.914 338.151 508.095 338.29L509.354 339.254L512.327 335.381C512.396 335.291 512.482 335.216 512.58 335.159C512.679 335.102 512.787 335.066 512.899 335.051C513.012 335.036 513.126 335.043 513.235 335.073C513.345 335.102 513.447 335.152 513.537 335.221L513.538 335.221L513.519 335.247L513.538 335.221C513.72 335.361 513.838 335.566 513.868 335.793C513.898 336.019 513.837 336.248 513.698 336.43L510.2 340.983C510.119 341.088 510.015 341.173 509.896 341.231C509.777 341.289 509.646 341.319 509.513 341.319L509.513 341.32Z" fill="white"/>
<path d="M510.332 381.74C514.897 381.74 518.599 378.045 518.599 373.488C518.599 368.93 514.897 365.235 510.332 365.235C505.766 365.235 502.065 368.93 502.065 373.488C502.065 378.045 505.766 381.74 510.332 381.74Z" fill="#E6E6E6"/>
<path d="M509.513 376.636C509.327 376.636 509.146 376.576 508.997 376.465L508.988 376.458L507.045 374.974C506.955 374.905 506.879 374.819 506.822 374.721C506.765 374.623 506.728 374.515 506.713 374.403C506.698 374.29 506.706 374.176 506.735 374.067C506.764 373.957 506.815 373.855 506.884 373.765C506.953 373.675 507.039 373.599 507.137 373.543C507.236 373.486 507.344 373.449 507.457 373.435C507.569 373.42 507.684 373.427 507.793 373.457C507.903 373.486 508.005 373.537 508.095 373.606L509.354 374.569L512.327 370.696C512.396 370.607 512.482 370.531 512.581 370.475C512.679 370.418 512.787 370.381 512.899 370.367C513.012 370.352 513.126 370.359 513.235 370.388C513.345 370.418 513.447 370.468 513.537 370.537L513.538 370.537L513.519 370.563L513.538 370.537C513.72 370.676 513.838 370.882 513.868 371.108C513.898 371.335 513.837 371.564 513.698 371.745L510.2 376.299C510.119 376.403 510.015 376.488 509.896 376.547C509.777 376.605 509.646 376.635 509.513 376.635L509.513 376.636Z" fill="white"/>
<path d="M626.561 427.945C626.095 428.188 625.62 428.418 625.138 428.636C624.698 428.834 624.252 429.02 623.799 429.194C623.633 429.258 623.465 429.321 623.296 429.384C621.964 429.866 620.595 430.243 619.203 430.51C618.514 430.645 617.816 430.752 617.109 430.829C616.525 430.895 615.935 430.942 615.339 430.97C614.915 430.991 614.491 431 614.063 431C612.371 431.001 610.682 430.843 609.02 430.528C608.586 430.45 608.162 430.357 607.738 430.255C605.685 429.764 603.698 429.032 601.818 428.074C601.65 427.99 601.481 427.9 601.313 427.813C601.063 427.68 600.819 427.542 600.575 427.398C600.693 427.236 600.819 427.076 600.949 426.92C602.357 425.178 604.117 423.752 606.114 422.734C608.111 421.717 610.301 421.131 612.54 421.014C614.78 420.898 617.019 421.254 619.111 422.06C621.203 422.865 623.102 424.102 624.683 425.689C625.232 426.238 625.741 426.827 626.206 427.449C626.329 427.611 626.447 427.776 626.561 427.945Z" fill="#2271FF"/>
<path d="M614.664 414.748C621.962 414.748 627.878 408.842 627.878 401.556C627.878 394.271 621.962 388.365 614.664 388.365C607.366 388.365 601.45 394.271 601.45 401.556C601.45 408.842 607.366 414.748 614.664 414.748Z" fill="#2F2E41"/>
<path d="M618.178 414.767C622.944 412.166 624.696 406.2 622.091 401.442C619.485 396.685 613.51 394.936 608.744 397.537C603.978 400.138 602.226 406.103 604.831 410.861C607.437 415.619 613.412 417.367 618.178 414.767Z" fill="#A0616A"/>
<path d="M623.795 399.976C621.548 401.523 618.88 402.346 616.151 402.335C617.125 403.009 618.233 403.464 619.4 403.669C615.771 404.446 612.02 404.467 608.383 403.731C607.574 403.601 606.794 403.334 606.076 402.94C605.719 402.741 605.407 402.468 605.162 402.141C604.917 401.814 604.743 401.438 604.653 401.039C604.411 399.661 605.487 398.408 606.605 397.564C608.317 396.292 610.291 395.415 612.384 394.997C614.477 394.58 616.637 394.632 618.708 395.15C620.06 395.499 621.414 396.088 622.292 397.172C623.17 398.256 623.43 399.927 622.594 401.043L623.795 399.976Z" fill="#2F2E41"/>
<path d="M616.045 376.994C615.83 376.978 615.611 376.965 615.393 376.955C614.952 376.932 614.509 376.922 614.062 376.922C609.621 376.922 605.248 378.013 601.328 380.098C597.409 382.182 594.063 385.197 591.585 388.877C589.108 392.557 587.574 396.788 587.121 401.199C586.667 405.61 587.307 410.064 588.984 414.169C589.072 414.387 589.164 414.605 589.262 414.82C591.502 419.887 595.237 424.152 599.968 427.045L600.141 427.146C600.288 427.234 600.431 427.318 600.575 427.396C600.819 427.543 601.064 427.68 601.312 427.813C601.481 427.901 601.651 427.989 601.817 428.073C603.697 429.032 605.684 429.764 607.737 430.254C608.161 430.358 608.585 430.449 609.019 430.527C610.682 430.842 612.37 431 614.062 430.999C614.489 430.999 614.913 430.99 615.341 430.97C615.934 430.944 616.524 430.895 617.108 430.83C617.815 430.752 618.514 430.646 619.204 430.511C620.595 430.243 621.963 429.866 623.296 429.385C623.465 429.32 623.635 429.258 623.798 429.193C624.254 429.02 624.697 428.835 625.138 428.636C625.62 428.418 626.095 428.187 626.562 427.943C631.246 425.493 635.118 421.74 637.709 417.138C637.721 417.113 637.734 417.089 637.748 417.066C639.954 413.097 641.123 408.638 641.148 404.099C641.173 399.56 640.053 395.088 637.89 391.096C635.728 387.103 632.593 383.719 628.775 381.254C624.957 378.79 620.579 377.324 616.045 376.994L616.045 376.994ZM640.079 408.923C639.556 411.653 638.602 414.283 637.253 416.714C637.23 416.757 637.207 416.799 637.184 416.838C634.647 421.373 630.829 425.063 626.207 427.448C625.744 427.689 625.276 427.915 624.802 428.125C624.407 428.301 624.003 428.47 623.595 428.627C623.426 428.692 623.25 428.76 623.077 428.819C621.926 429.238 620.746 429.576 619.546 429.828C618.657 430.017 617.758 430.159 616.853 430.251C616.296 430.313 615.732 430.355 615.161 430.374C614.796 430.391 614.431 430.401 614.062 430.401C612.425 430.401 610.791 430.249 609.182 429.945C608.203 429.766 607.235 429.529 606.283 429.235C604.834 428.789 603.426 428.22 602.074 427.533C601.918 427.452 601.761 427.37 601.608 427.286C601.386 427.169 601.165 427.048 600.95 426.921C600.787 426.83 600.624 426.732 600.464 426.638C600.369 426.583 600.278 426.527 600.183 426.469C595.68 423.69 592.107 419.634 589.92 414.82C589.822 414.605 589.728 414.387 589.636 414.169C587.952 410.151 587.287 405.78 587.703 401.444C588.118 397.108 589.6 392.942 592.017 389.316C594.435 385.689 597.712 382.716 601.558 380.658C605.404 378.601 609.699 377.525 614.062 377.524C614.509 377.524 614.952 377.534 615.393 377.56C615.611 377.567 615.83 377.583 616.045 377.599C619.765 377.881 623.384 378.943 626.664 380.717C629.945 382.491 632.813 384.936 635.082 387.893C637.351 390.85 638.969 394.251 639.83 397.875C640.691 401.499 640.776 405.264 640.079 408.923L640.079 408.923Z" fill="#3F3D56"/>
<path d="M607.972 388.547C607.83 387.055 605.999 386.136 604.566 386.587C603.134 387.038 602.194 388.477 601.909 389.949C601.773 390.569 601.76 391.21 601.872 391.835C601.983 392.46 602.218 393.057 602.561 393.591C603.285 394.631 604.615 395.281 605.856 395.016C607.273 394.715 608.254 393.334 608.535 391.916C608.816 390.497 608.537 389.035 608.259 387.616L607.972 388.547Z" fill="#2F2E41"/>
<path d="M628.13 390.679C627.987 389.187 626.156 388.268 624.724 388.719C623.291 389.17 622.351 390.609 622.067 392.082C621.93 392.701 621.917 393.342 622.029 393.967C622.141 394.592 622.375 395.189 622.718 395.723C623.442 396.763 624.773 397.413 626.014 397.149C627.43 396.847 628.412 395.466 628.692 394.048C628.973 392.629 628.694 391.167 628.416 389.748L628.13 390.679Z" fill="#2F2E41"/>
<path d="M562.361 277.552C558.169 280.232 553.311 281.693 548.334 281.772C543.356 281.851 538.454 280.545 534.178 277.999C534.931 276.601 535.884 275.321 537.007 274.199C538.741 272.46 540.851 271.141 543.175 270.343C545.499 269.545 547.976 269.289 550.414 269.596C552.853 269.903 555.188 270.763 557.242 272.112C559.295 273.46 561.011 275.26 562.259 277.374C562.292 277.431 562.328 277.492 562.361 277.552Z" fill="#2271FF"/>
<path d="M547.093 263.185C554.439 263.185 560.395 257.24 560.395 249.906C560.395 242.572 554.439 236.627 547.093 236.627C539.747 236.627 533.791 242.572 533.791 249.906C533.791 257.24 539.747 263.185 547.093 263.185Z" fill="#2F2E41"/>
<path d="M555.687 259.272C558.309 254.483 556.546 248.478 551.749 245.86C546.951 243.242 540.935 245.002 538.313 249.791C535.69 254.581 537.453 260.586 542.251 263.204C547.049 265.822 553.064 264.062 555.687 259.272Z" fill="#FFB8B8"/>
<path d="M537.901 248.315C540.163 249.872 542.849 250.7 545.596 250.689C544.616 251.368 543.5 251.826 542.326 252.033C545.979 252.815 549.755 252.836 553.416 252.095C554.23 251.965 555.016 251.695 555.738 251.299C556.098 251.098 556.412 250.824 556.658 250.494C556.905 250.165 557.08 249.787 557.171 249.386C557.414 247.998 556.331 246.737 555.206 245.888C553.482 244.606 551.495 243.724 549.388 243.304C547.281 242.883 545.107 242.936 543.023 243.457C541.662 243.808 540.298 244.402 539.414 245.493C538.53 246.584 538.269 248.266 539.111 249.389L537.901 248.315Z" fill="#2F2E41"/>
<path d="M547.908 228C540.728 228.008 533.843 230.859 528.765 235.928C523.688 240.996 520.831 247.868 520.822 255.037C520.823 257.224 521.092 259.402 521.624 261.524C521.679 261.742 521.735 261.96 521.794 262.174C523.356 267.893 526.759 272.939 531.478 276.536C536.198 280.133 541.971 282.08 547.908 282.077C553.847 282.077 559.621 280.129 564.342 276.533C569.064 272.937 572.471 267.892 574.039 262.174C574.098 261.956 574.154 261.742 574.206 261.524C575.188 257.541 575.25 253.387 574.388 249.377C573.525 245.366 571.761 241.604 569.227 238.375C566.694 235.145 563.458 232.533 559.765 230.736C556.072 228.938 552.017 228.003 547.908 228V228ZM573.586 261.524C573.534 261.742 573.475 261.96 573.414 262.174C572.313 266.085 570.326 269.691 567.605 272.711C564.884 275.732 561.503 278.086 557.723 279.591C553.944 281.097 549.868 281.713 545.812 281.392C541.755 281.072 537.827 279.822 534.333 277.742C528.524 274.252 524.265 268.686 522.42 262.174C522.358 261.956 522.299 261.742 522.243 261.524C521.7 259.404 521.425 257.225 521.425 255.037C521.429 251.292 522.231 247.59 523.776 244.178C525.321 240.765 527.575 237.719 530.388 235.242C533.201 232.764 536.51 230.912 540.094 229.807C543.679 228.702 547.458 228.37 551.18 228.833C554.903 229.296 558.485 230.543 561.688 232.492C564.891 234.441 567.644 237.047 569.762 240.138C571.88 243.229 573.317 246.734 573.976 250.421C574.635 254.107 574.503 257.892 573.586 261.524H573.586Z" fill="#3F3D56"/>
<path d="M474.539 371.331C470.347 374.011 465.49 375.473 460.512 375.552C455.535 375.631 450.633 374.325 446.357 371.78C446.403 371.692 446.452 371.604 446.504 371.52C447.876 369.052 449.874 366.988 452.299 365.536C454.724 364.085 457.489 363.297 460.316 363.252C463.143 363.206 465.932 363.906 468.402 365.279C470.872 366.652 472.936 368.651 474.386 371.074C474.405 371.1 474.422 371.129 474.438 371.155C474.471 371.211 474.507 371.272 474.539 371.331Z" fill="#2271FF"/>
<path d="M472.573 343.685C472.573 346.312 471.793 348.879 470.331 351.063C468.87 353.247 466.792 354.949 464.362 355.954C461.931 356.959 459.257 357.222 456.676 356.709C454.096 356.197 451.726 354.932 449.865 353.075C448.005 351.218 446.738 348.852 446.225 346.276C445.712 343.7 445.975 341.03 446.982 338.604C447.989 336.177 449.694 334.103 451.881 332.644C454.069 331.185 456.64 330.406 459.271 330.406C461.021 330.398 462.754 330.736 464.372 331.4C465.989 332.064 467.459 333.042 468.696 334.277C469.933 335.512 470.912 336.979 471.578 338.594C472.243 340.209 472.582 341.939 472.573 343.685V343.685Z" fill="#2F2E41"/>
<path d="M469.694 351.936C469.542 352.318 469.367 352.691 469.169 353.052C467.91 355.352 465.787 357.058 463.267 357.796C460.748 358.533 458.038 358.241 455.734 356.984C454.592 356.362 453.584 355.522 452.768 354.511C451.952 353.5 451.343 352.338 450.977 351.092C450.611 349.846 450.494 348.54 450.633 347.249C450.773 345.958 451.165 344.707 451.789 343.568C452.413 342.429 453.256 341.423 454.269 340.609C455.282 339.795 456.446 339.188 457.695 338.823C458.943 338.459 460.251 338.343 461.544 338.483C462.837 338.623 464.09 339.016 465.231 339.64C467.347 340.795 468.969 342.682 469.79 344.946C470.612 347.21 470.578 349.695 469.694 351.936V351.936Z" fill="#A0616A"/>
<path d="M479.805 330.309C479.596 330.081 479.377 329.856 479.152 329.638C475.53 326.054 470.966 323.565 465.988 322.457C461.01 321.349 455.82 321.667 451.015 323.376C446.21 325.084 441.987 328.113 438.832 332.113C435.676 336.114 433.717 340.923 433.18 345.986C432.642 351.049 433.549 356.161 435.795 360.732C438.041 365.304 441.535 369.149 445.875 371.824C450.215 374.499 455.223 375.896 460.323 375.854C465.423 375.812 470.408 374.332 474.702 371.585C476.306 370.557 477.798 369.365 479.152 368.027C479.374 367.809 479.593 367.588 479.805 367.36C484.535 362.348 487.169 355.721 487.169 348.834C487.169 341.948 484.535 335.321 479.805 330.308V330.309ZM479.152 367.171C477.721 368.652 476.121 369.962 474.386 371.074C474.383 371.077 474.379 371.077 474.376 371.08C470.231 373.73 465.428 375.175 460.506 375.253C455.585 375.331 450.738 374.039 446.511 371.523C446.507 371.523 446.507 371.52 446.504 371.52C443.262 369.589 440.47 366.989 438.316 363.893C436.163 360.798 434.698 357.278 434.018 353.571C433.339 349.863 433.462 346.054 434.378 342.398C435.295 338.741 436.984 335.323 439.332 332.372C441.681 329.421 444.634 327.005 447.994 325.287C451.354 323.569 455.044 322.588 458.815 322.41C462.586 322.231 466.351 322.86 469.859 324.254C473.367 325.648 476.535 327.774 479.152 330.491C479.377 330.719 479.593 330.953 479.805 331.191C484.158 336.038 486.566 342.32 486.566 348.831C486.566 355.342 484.158 361.624 479.805 366.472C479.596 366.709 479.377 366.944 479.152 367.171Z" fill="#3F3D56"/>
<path d="M470.052 332.658C469.397 331.547 468.447 330.639 467.307 330.034C466.168 329.429 464.882 329.149 463.594 329.227C462.241 329.328 460.954 329.826 459.691 330.318L453.267 332.82C451.604 333.467 449.784 334.26 449.062 335.889C448.393 337.401 448.892 339.148 449.398 340.722L451.801 348.206C452.131 346.525 452.465 344.827 453.164 343.262C453.862 341.698 454.966 340.255 456.493 339.473C458.161 338.618 460.128 338.636 462.001 338.726C464.654 338.854 467.539 339.191 469.424 341.059C470.425 342.12 471.103 343.442 471.38 344.873C471.653 346.296 471.791 347.742 471.791 349.19C472.879 347.324 473.795 345.362 474.529 343.33C475.132 341.817 475.476 340.214 475.546 338.587C475.561 336.962 475.1 335.286 474.014 334.075C472.929 332.864 471.161 332.21 469.605 332.689" fill="#2F2E41"/>
<path d="M449.795 296.949L449.143 296.941C449.15 296.29 449.169 295.63 449.198 294.978L449.85 295.007C449.821 295.652 449.802 296.305 449.795 296.949Z" fill="#E6E6E6"/>
<path d="M450.136 291.29L449.488 291.219C449.624 289.975 449.802 288.72 450.018 287.49L450.66 287.602C450.447 288.819 450.271 290.06 450.136 291.29ZM451.421 283.955L450.788 283.802C451.083 282.587 451.422 281.365 451.795 280.171L452.417 280.365C452.048 281.546 451.713 282.754 451.421 283.955ZM453.646 276.843L453.037 276.609C453.488 275.442 453.982 274.273 454.508 273.136L455.1 273.409C454.58 274.533 454.091 275.689 453.646 276.843V276.843ZM456.773 270.076L456.2 269.766C456.797 268.666 457.438 267.572 458.106 266.512L458.658 266.858C457.997 267.906 457.363 268.989 456.773 270.076L456.773 270.076ZM460.745 263.768L460.217 263.387C460.95 262.373 461.727 261.369 462.524 260.404L463.027 260.818C462.238 261.773 461.471 262.765 460.745 263.768V263.768ZM465.492 258.021L465.017 257.575C465.873 256.664 466.771 255.768 467.686 254.912L468.132 255.386C467.228 256.233 466.34 257.119 465.492 258.021V258.021ZM470.934 252.926L470.519 252.424C471.485 251.628 472.49 250.854 473.505 250.122L473.887 250.65C472.883 251.373 471.89 252.139 470.934 252.926V252.926ZM476.98 248.568L476.633 248.016C477.694 247.351 478.789 246.711 479.889 246.116L480.2 246.688C479.112 247.277 478.029 247.909 476.98 248.568V248.568ZM483.534 245.02L483.261 244.429C484.397 243.906 485.565 243.413 486.733 242.963L486.967 243.571C485.813 244.015 484.657 244.503 483.534 245.02V245.02ZM490.487 242.346L490.292 241.725C491.487 241.352 492.711 241.013 493.929 240.718L494.082 241.35C492.878 241.642 491.668 241.977 490.487 242.346V242.346ZM497.735 240.589L497.622 239.948C498.855 239.732 500.112 239.554 501.358 239.417L501.429 240.065C500.196 240.199 498.954 240.376 497.735 240.589V240.589Z" fill="#E6E6E6"/>
<path d="M505.175 239.776L505.145 239.126C505.799 239.097 506.46 239.078 507.112 239.07L507.12 239.721C506.475 239.729 505.821 239.747 505.175 239.776Z" fill="#E6E6E6"/>
<path d="M452.203 294.856L451.737 294.4L449.489 296.695L447.36 294.29L446.871 294.721L449.465 297.651L452.203 294.856Z" fill="#E6E6E6"/>
<path d="M505.024 242.125L504.567 241.66L506.866 239.416L504.456 237.291L504.889 236.803L507.823 239.392L505.024 242.125Z" fill="#E6E6E6"/>
<path d="M602.575 246.212C602.001 245.911 601.423 245.615 600.84 245.323L601.132 244.741C601.719 245.034 602.301 245.333 602.879 245.636L602.575 246.212Z" fill="#E6E6E6"/>
<path d="M646.884 366.352L646.28 366.106C646.771 364.911 647.243 363.692 647.682 362.482L648.295 362.704C647.852 363.922 647.377 365.149 646.884 366.352ZM649.557 359.001L648.935 358.805C649.326 357.575 649.697 356.322 650.036 355.079L650.665 355.25C650.323 356.502 649.95 357.764 649.557 359.001V359.001ZM651.619 351.456L650.983 351.311C651.272 350.053 651.538 348.773 651.773 347.507L652.415 347.626C652.177 348.901 651.909 350.189 651.619 351.456V351.456ZM653.052 343.766L652.406 343.673C652.59 342.397 652.749 341.099 652.88 339.817L653.529 339.883C653.397 341.174 653.236 342.481 653.052 343.766V343.766ZM653.845 335.984L653.194 335.944C653.272 334.658 653.323 333.352 653.348 332.062L654 332.075C653.975 333.373 653.923 334.688 653.845 335.984V335.984ZM653.994 328.162L653.342 328.177C653.33 327.61 653.312 327.045 653.289 326.48C653.26 325.755 653.222 325.02 653.176 324.294L653.827 324.253C653.873 324.983 653.912 325.724 653.941 326.454C653.964 327.023 653.981 327.592 653.994 328.162L653.994 328.162ZM652.851 320.424C652.717 319.142 652.555 317.845 652.368 316.57L653.014 316.476C653.201 317.759 653.365 319.065 653.5 320.356L652.851 320.424ZM651.728 312.738C651.49 311.472 651.222 310.192 650.932 308.935L651.567 308.789C651.859 310.055 652.129 311.343 652.369 312.618L651.728 312.738ZM649.981 305.167C649.639 303.923 649.268 302.669 648.877 301.441L649.498 301.244C649.892 302.48 650.266 303.742 650.609 304.996L649.981 305.167ZM647.622 297.763C647.181 296.55 646.708 295.331 646.218 294.138L646.821 293.89C647.315 295.092 647.79 296.32 648.235 297.54L647.622 297.763ZM644.667 290.572C644.129 289.4 643.558 288.222 642.972 287.073L643.553 286.778C644.143 287.935 644.718 289.12 645.26 290.301L644.667 290.572ZM641.136 283.645C640.503 282.52 639.839 281.393 639.16 280.295L639.715 279.953C640.398 281.059 641.067 282.194 641.704 283.326L641.136 283.645ZM637.049 277.028C636.326 275.958 635.571 274.889 634.805 273.85L635.33 273.464C636.101 274.51 636.861 275.587 637.589 276.664L637.049 277.028ZM632.432 270.766C631.622 269.758 630.782 268.754 629.933 267.782L630.424 267.354C631.279 268.333 632.126 269.344 632.94 270.359L632.432 270.766ZM627.313 264.903C626.423 263.965 625.502 263.034 624.576 262.134L625.03 261.668C625.963 262.573 626.89 263.511 627.786 264.455L627.313 264.903ZM621.726 259.48C620.762 258.619 619.767 257.766 618.768 256.945L619.183 256.443C620.188 257.269 621.19 258.128 622.161 258.995L621.726 259.48ZM615.707 254.534C614.679 253.758 613.619 252.991 612.555 252.255L612.927 251.72C613.998 252.461 615.066 253.233 616.101 254.015L615.707 254.534ZM609.312 250.106C608.224 249.417 607.104 248.739 605.984 248.091L606.311 247.528C607.439 248.18 608.566 248.863 609.662 249.557L609.312 250.106Z" fill="#E6E6E6"/>
<path d="M644.487 371.719L643.9 371.436C644.183 370.85 644.459 370.263 644.729 369.675L645.322 369.945C645.05 370.538 644.772 371.129 644.487 371.719Z" fill="#E6E6E6"/>
<path d="M601.657 248.405L602.272 248.188L601.201 245.162L604.303 244.316L604.13 243.688L600.352 244.719L601.657 248.405Z" fill="#E6E6E6"/>
<path d="M642.661 368.498L643.281 368.295L644.284 371.344L647.257 370.123L647.505 370.726L643.883 372.212L642.661 368.498Z" fill="#E6E6E6"/>
<path d="M679.38 364.245L606.548 304.141C606.548 304.141 557.758 280.806 579.678 264.543C601.598 248.279 617.862 287.17 617.862 287.17L697.765 345.86L679.38 364.245Z" fill="#FFB9B9"/>
<path d="M800.407 357.696L795.349 354.159L722.443 345.529L638 298.5L633.5 334.5L705.5 397L808.196 401.519L800.407 357.696Z" fill="#2271FF"/>
<path d="M1045.43 572.861C1042.24 572.408 1039.19 571.22 1036.54 569.39C1033.89 567.561 1031.7 565.14 1030.14 562.318C1028.58 559.497 1027.7 556.352 1027.56 553.131C1027.43 549.911 1028.04 546.703 1029.35 543.761C1030.67 540.818 1032.65 538.221 1035.14 536.175C1037.63 534.129 1040.56 532.689 1043.71 531.969C1046.85 531.249 1050.11 531.268 1053.25 532.026C1056.38 532.783 1059.29 534.258 1061.76 536.334L1056.26 545.542L1065.05 539.825C1068.34 544.227 1069.75 549.756 1068.96 555.195C1068.7 557.105 1068.16 558.967 1067.37 560.727C1065.53 564.86 1062.39 568.281 1058.43 570.471C1054.47 572.66 1049.91 573.5 1045.43 572.861V572.861Z" fill="#57B894"/>
<path d="M964.853 670.703C970.717 663.505 967.676 652.731 963.388 644.496C959.1 636.261 953.631 627.501 955.516 618.41C958.226 605.345 973.612 600.259 986.051 595.431C995.28 591.847 1004.05 587.182 1012.18 581.533C1015.44 579.268 1018.65 576.792 1020.92 573.539C1024.2 568.853 1025.25 563.012 1026.17 557.37C1029.26 538.577 1031.9 519.718 1034.09 500.794" stroke="#3F3D56" stroke-miterlimit="10"/>
<path d="M1045.97 570.024C1042.78 569.571 1039.74 568.383 1037.08 566.553C1034.43 564.724 1032.24 562.303 1030.68 559.481C1029.12 556.66 1028.24 553.515 1028.1 550.295C1027.97 547.074 1028.58 543.866 1029.9 540.924C1031.21 537.981 1033.19 535.384 1035.68 533.338C1038.17 531.292 1041.1 529.852 1044.25 529.132C1047.39 528.412 1050.65 528.431 1053.79 529.189C1056.92 529.947 1059.83 531.421 1062.3 533.497L1056.8 542.705L1065.59 536.988C1068.88 541.39 1070.29 546.919 1069.51 552.358C1069.24 554.268 1068.7 556.13 1067.91 557.89C1066.07 562.023 1062.93 565.444 1058.97 567.634C1055.01 569.823 1050.45 570.663 1045.97 570.024V570.024Z" stroke="#3F3D56" stroke-miterlimit="10"/>
<path d="M1054.69 507.583C1055.19 504.13 1054.8 500.607 1053.58 497.34C1052.35 494.074 1050.32 491.168 1047.68 488.89L1041.38 497.071L1043.61 486.138C1039.68 484.121 1035.22 483.403 1030.86 484.087C1026.5 484.771 1022.48 486.823 1019.36 489.946C1016.24 493.069 1014.2 497.101 1013.52 501.461C1012.85 505.821 1013.58 510.282 1015.6 514.201C1017.63 518.12 1020.85 521.294 1024.8 523.264C1028.74 525.234 1033.21 525.899 1037.56 525.163C1041.91 524.427 1045.92 522.327 1048.99 519.167C1052.07 516.007 1054.07 511.951 1054.69 507.583V507.583Z" fill="#57B894"/>
<path d="M1055.41 503.801C1055.91 500.347 1055.52 496.825 1054.3 493.558C1053.07 490.291 1051.05 487.385 1048.4 485.108L1042.1 493.289L1044.33 482.356C1040.4 480.338 1035.94 479.62 1031.58 480.304C1027.22 480.989 1023.2 483.041 1020.08 486.164C1016.96 489.286 1014.92 493.319 1014.25 497.678C1013.57 502.038 1014.3 506.499 1016.32 510.418C1018.35 514.337 1021.57 517.511 1025.52 519.482C1029.46 521.452 1033.93 522.117 1038.28 521.381C1042.63 520.644 1046.64 518.544 1049.72 515.385C1052.79 512.225 1054.79 508.168 1055.41 503.801V503.801Z" stroke="#3F3D56" stroke-miterlimit="10"/>
<path d="M989.178 597.332C984.119 596.61 979.502 594.051 976.208 590.144C972.914 586.237 971.173 581.254 971.317 576.146C971.46 571.037 973.479 566.16 976.987 562.444C980.495 558.728 985.248 556.433 990.34 555.997L988.628 564.398L995.002 556.12C995.021 556.121 995.04 556.123 995.059 556.127C1000.52 556.907 1005.45 559.825 1008.77 564.24C1012.08 568.656 1013.5 574.206 1012.72 579.67C1011.94 585.134 1009.02 590.064 1004.61 593.377C1000.19 596.689 994.642 598.112 989.178 597.332Z" fill="#57B894"/>
<path d="M990.056 593.579C984.997 592.857 980.38 590.298 977.086 586.391C973.792 582.484 972.051 577.501 972.195 572.393C972.338 567.284 974.357 562.408 977.865 558.692C981.373 554.976 986.126 552.681 991.218 552.244L989.506 560.645L995.881 552.367C995.899 552.368 995.918 552.37 995.937 552.374C998.642 552.76 1001.25 553.676 1003.6 555.068C1005.95 556.46 1008 558.302 1009.64 560.488C1011.28 562.674 1012.48 565.162 1013.16 567.809C1013.83 570.456 1013.98 573.211 1013.6 575.917C1013.21 578.623 1012.3 581.226 1010.91 583.577C1009.51 585.929 1007.67 587.984 1005.49 589.624C1003.3 591.264 1000.81 592.457 998.164 593.136C995.517 593.815 992.762 593.965 990.056 593.579V593.579Z" stroke="#3F3D56" stroke-miterlimit="10"/>
<path d="M992.039 638.024C989.099 641.783 984.956 644.417 980.305 645.484C975.653 646.55 970.776 645.986 966.492 643.884C962.208 641.782 958.776 638.271 956.773 633.939C954.77 629.608 954.318 624.719 955.491 620.093C956.665 615.468 959.393 611.386 963.219 608.533C967.044 605.681 971.735 604.23 976.503 604.425C981.271 604.62 985.827 606.448 989.408 609.604C992.988 612.759 995.374 617.049 996.166 621.755L981.418 629.709L996.084 629.132C995.467 632.377 994.08 635.427 992.039 638.024V638.024Z" fill="#57B894"/>
<path d="M992.58 635.187C989.64 638.946 985.497 641.58 980.846 642.647C976.194 643.714 971.317 643.149 967.033 641.047C962.749 638.945 959.317 635.434 957.314 631.102C955.311 626.771 954.859 621.882 956.032 617.256C957.206 612.631 959.934 608.549 963.76 605.696C967.586 602.844 972.276 601.393 977.044 601.588C981.812 601.783 986.368 603.611 989.949 606.767C993.529 609.922 995.915 614.212 996.707 618.918L981.959 626.872L996.625 626.296C996.008 629.54 994.621 632.59 992.58 635.187V635.187Z" stroke="#3F3D56" stroke-miterlimit="10"/>
<path d="M327 304.5H258V381.5H327V304.5Z" fill="#F2F2F2"/>
<path d="M339 297.5H270V374.5H339V297.5Z" stroke="#3F3D56" stroke-miterlimit="10"/>
<path d="M500 534H431V611H500V534Z" fill="#2271FF"/>
<path d="M512 527H443V604H512V527Z" stroke="#3F3D56" stroke-miterlimit="10"/>
<path d="M747.5 780.6C795.273 780.6 834 736.679 834 682.5C834 628.321 795.273 584.4 747.5 584.4C699.727 584.4 661 628.321 661 682.5C661 736.679 699.727 780.6 747.5 780.6Z" fill="#36334A"/>
<path d="M785.5 505L655.5 509C655.5 509 540.5 621 635.5 655C635.5 655 752.5 674 780.5 652C780.5 652 815.5 514 785.5 505ZM779.5 542L640.5 551C640.5 551 650.5 517 690.5 517C730.5 517 775.5 508 779.5 529C783.5 550 779.5 542 779.5 542Z" fill="#3F3D56"/>
<path d="M918.5 584L747.5 578L787.5 409C787.5 409 947.5 397 943.5 438C939.5 479 918.5 584 918.5 584Z" fill="#36334A"/>
<path d="M753.419 664.786C753.419 664.786 650.5 683 613.5 629C576.5 575 753.5 604 753.5 604L768.5 645L753.419 664.786Z" fill="#36334A"/>
<path d="M722.5 894C748.457 894 769.5 872.957 769.5 847C769.5 821.043 748.457 800 722.5 800C696.543 800 675.5 821.043 675.5 847C675.5 872.957 696.543 894 722.5 894Z" fill="#36334A"/>
<path d="M727 881C743.292 881 756.5 865.778 756.5 847C756.5 828.222 743.292 813 727 813C710.708 813 697.5 828.222 697.5 847C697.5 865.778 710.708 881 727 881Z" fill="#3F3D56"/>
<path d="M979.5 404C979.5 404 940.5 382 938.5 434L905.5 676H919.5L957.5 417C957.5 417 976.5 420 979.5 420C982.5 420 979.5 404 979.5 404Z" fill="#3F3D56"/>
<path d="M1018.36 430.702C1018 431.986 1017.38 433.179 1016.52 434.202C1015.67 435.224 1014.6 436.051 1013.4 436.629C1012.2 437.206 1010.89 437.52 1009.55 437.549C1008.22 437.578 1006.9 437.322 1005.67 436.798L960.431 417.456L968.638 399.378L1013.23 419.687C1015.25 420.61 1016.88 422.227 1017.83 424.247C1018.77 426.266 1018.96 428.555 1018.36 430.702V430.702Z" fill="#36334A"/>
<path d="M743.5 659C743.5 659 671.5 651 651.5 720C631.5 789 633.5 842 616.5 838C599.5 834 563.5 820 563.5 820L566.5 841C566.5 841 629.5 873 639.5 839C649.5 805 655.5 680 712.5 683C769.5 686 779.5 680 779.5 680L743.5 659Z" fill="#3F3D56"/>
<path d="M606.5 626C606.5 626 550.5 633 528.5 674C506.5 715 495.5 789 495.5 789H516.5C516.5 789 528.5 642 591.5 650L606.5 626Z" fill="#3F3D56"/>
<path d="M568.5 855L479.5 800C479.5 800 474.5 780 531.5 772C531.5 772 639.267 809.69 628.883 823.845C618.5 838 583.5 860 568.5 855Z" fill="#36334A"/>
<path d="M706.5 676V793H719.5V674L706.5 676Z" fill="#3F3D56"/>
<path d="M725.5 748C725.5 748 750.5 846 734.5 860C734.5 860 713.5 798 697.5 806L702.5 748H725.5Z" fill="#36334A"/>
<path d="M823 360.5C838.904 363.202 844.774 344.321 860.695 346.922C864.158 347.631 867.472 348.934 870.489 350.775C882.217 357.41 892.437 366.413 900.498 377.21C908.56 388.007 914.287 400.364 917.317 413.494C919.116 421.515 919.811 430.212 916.424 437.702C914.623 441.683 911.774 445.083 908.925 448.396C898.332 460.716 886.706 472.994 871.591 478.954C870.115 484.068 871.533 489.605 873.303 494.625C880.694 515.583 868.941 538.17 868.341 560.385C868.239 564.185 868.353 568.349 865.977 571.316C863.339 574.61 858.63 575.195 854.417 575.432C815.801 577.608 777.239 571.684 739.016 565.778C738.016 565.709 737.05 565.382 736.213 564.829C734.956 563.825 734.766 562.031 734.498 560.445C733.081 552.051 740.534 545.245 737 537.5C730.924 524.186 744.177 509.626 748 495.5C751.823 481.373 753.328 478.888 756 464.5C756.999 459.12 754.121 442.901 755 437.5C757.87 419.858 755.7 399.763 765 384.5C770.588 375.329 785.529 356.987 795.5 353C806.021 348.793 811.745 361.81 823 360.5Z" fill="#2271FF"/>
<path d="M638.995 592.692C627.352 594.937 614.991 597.079 606.031 604.845C600.559 609.589 596.881 616.018 593.309 622.317L556.858 686.583C545.742 706.183 534.619 725.794 524.54 745.947C523.659 747.413 523.143 749.068 523.033 750.775C523.073 753.18 524.69 755.248 526.345 756.993C532.095 762.955 539.159 767.49 546.973 770.237C554.786 772.984 563.134 773.868 571.349 772.817C573.857 759.835 586.197 751.255 592.245 739.498C595.569 733.037 596.904 725.773 599.049 718.831C607.051 692.941 626.046 672.152 644.487 652.297C653.202 642.913 662.124 633.366 673.354 627.208C686.528 619.984 701.814 617.986 716.537 614.986C731.259 611.985 746.503 607.436 756.92 596.61C761.342 591.946 764.672 586.358 766.668 580.249C768.665 574.141 769.279 567.665 768.466 561.291C759.034 560.631 748.538 559.404 739.44 562.438C728.874 565.961 718.654 570.775 708.072 574.374C685.492 582.053 662.412 588.174 638.995 592.692V592.692Z" fill="#696880"/>
<path opacity="0.1" d="M638.995 592.692C627.352 594.937 614.991 597.079 606.031 604.845C600.559 609.589 596.881 616.018 593.309 622.317L556.858 686.583C545.742 706.183 534.619 725.794 524.54 745.947C523.659 747.413 523.143 749.068 523.033 750.775C523.073 753.18 524.69 755.248 526.345 756.993C532.095 762.955 539.159 767.49 546.973 770.237C554.786 772.984 563.134 773.868 571.349 772.817C573.857 759.835 586.197 751.255 592.245 739.498C595.569 733.037 596.904 725.773 599.049 718.831C607.051 692.941 626.046 672.152 644.487 652.297C653.202 642.913 662.124 633.366 673.354 627.208C686.528 619.984 701.814 617.986 716.537 614.986C731.259 611.985 746.503 607.436 756.92 596.61C761.342 591.946 764.672 586.358 766.668 580.249C768.665 574.141 769.279 567.665 768.466 561.291C759.034 560.631 748.538 559.404 739.44 562.438C728.874 565.961 718.654 570.775 708.072 574.374C685.492 582.053 662.412 588.174 638.995 592.692V592.692Z" fill="black"/>
<path d="M481.847 796.479C480.549 797.409 479.551 798.697 478.976 800.187C477.652 804.697 483.296 807.874 487.813 809.174C497.961 812.095 508.788 815.021 518.91 812.012C525.118 810.166 530.519 806.211 536.686 804.236C545.839 801.303 555.752 802.968 565.213 804.658C567.327 792.764 565.905 780.51 561.123 769.416C558.087 762.414 545.937 759.006 538.703 758.699C530.795 758.363 528.048 764.198 523.484 769.568C512.366 782.648 494.655 785.68 481.847 796.479Z" fill="#3F3D56"/>
<path d="M646.424 611.848C640.83 614.074 635.093 616.39 630.704 620.512C626.07 624.864 623.358 630.835 620.885 636.691C613.576 654.001 607.353 671.75 602.254 689.834C599.677 698.972 597.381 708.215 593.91 717.052C586.982 734.688 575.226 751.579 576.331 770.495C576.324 772.793 576.943 775.05 578.12 777.024C579.689 779.301 582.359 780.509 584.895 781.611L598.192 787.384C605.328 790.482 614.034 793.461 620.409 789.003C624.675 786.02 626.379 780.609 627.666 775.565C632.314 757.349 635.186 738.427 643.513 721.571C652.925 702.521 668.839 687.126 677.259 667.617C678.451 664.856 679.581 661.893 681.925 660.009C683.86 658.452 686.37 657.845 688.792 657.294C738.733 645.922 789.801 639.702 839.342 626.699C846.386 624.851 853.754 622.656 858.779 617.386C865.746 610.078 866.367 598.97 866.59 588.876C866.729 582.551 866.699 575.679 862.846 570.662C858.501 565.004 850.708 563.51 843.612 562.763C816.399 559.901 791.299 564.41 764.496 567.713C739.973 570.735 715.273 584.577 692.395 593.621C677.065 599.68 661.742 605.756 646.424 611.848Z" fill="#696880"/>
<path d="M584.89 792.631C581.15 801.512 577.114 810.788 569.529 816.73C566.36 819.213 562.261 821.698 562.134 825.722C562 829.979 566.471 832.789 570.478 834.234C580.681 837.915 592.294 838.702 602.249 834.395C609.058 831.448 614.674 826.357 620.154 821.355C621.804 819.848 623.513 818.258 624.286 816.162C624.814 814.395 624.972 812.539 624.751 810.708C624.094 799.599 622.113 788.608 618.849 777.968C618.596 777.132 597.079 774.45 595.171 774.948C589.164 776.517 587.207 787.13 584.89 792.631Z" fill="#3F3D56"/>
<path d="M919.5 535L789.5 539C789.5 539 674.5 651 769.5 685C769.5 685 886.5 704 914.5 682C914.5 682 949.5 544 919.5 535ZM913.5 572L774.5 581C774.5 581 784.5 547 824.5 547C864.5 547 909.5 538 913.5 559C917.5 580 913.5 572 913.5 572Z" fill="#3F3D56"/>
<path d="M890 894C962.073 894 1020.5 827.738 1020.5 746C1020.5 664.262 962.073 598 890 598C817.927 598 759.5 664.262 759.5 746C759.5 827.738 817.927 894 890 894Z" fill="#36334A"/>
<path d="M896 856C950.4 856 994.5 806.751 994.5 746C994.5 685.249 950.4 636 896 636C841.6 636 797.5 685.249 797.5 746C797.5 806.751 841.6 856 896 856Z" fill="#3F3D56"/>
<path d="M921.5 744.5C921.497 742.581 921.306 740.667 920.929 738.785L994.5 702L989.5 691L915.182 727.206C914.432 726.435 913.605 725.744 912.713 725.143L912.77 725.155L934.5 617L915.278 616.563L902.5 723L903.725 723.257C902.732 723.461 901.769 723.79 900.859 724.236L836.584 658.26L827.5 671L893.538 731.755C891.882 734.936 890.887 738.419 890.614 741.994L797.5 780L795.5 796L892.56 755.18C893.465 757.426 894.748 759.499 896.354 761.311L866.5 863H877.5L902.559 765.45C903.671 765.808 904.832 765.994 906 766C908.256 765.979 910.46 765.319 912.356 764.095L964.5 833L980.5 822L919.403 755.264C920.806 751.849 921.518 748.191 921.5 744.5V744.5Z" fill="#36334A"/>
<path d="M797.957 513.987C796.246 513.764 794.506 513.963 792.888 514.565C791.271 515.167 789.825 516.155 788.675 517.442C779.925 525.415 770.65 534.401 769.064 546.132C768.822 547.201 768.949 548.322 769.427 549.308C770.27 550.688 772.122 550.993 773.738 551.02C777.827 551.061 781.877 550.228 785.618 548.576C789.358 546.924 792.702 544.492 795.426 541.442C796.927 539.739 798.304 537.79 800.362 536.831C802.243 536.131 804.261 535.881 806.256 536.1C811.746 536.28 824.281 539.09 829.067 536.367C834.1 533.503 832.716 524.527 830.367 520.199C824.781 509.911 807.464 513.884 797.957 513.987Z" fill="#FBBEBE"/>
<path d="M811 513.5L884.5 494.5C869 497.5 873.264 489.746 872 491.5C868.02 496.272 861.031 492.617 854.834 493.075C851.245 493.341 847.831 494.668 844.48 495.981L817 509.5L811 513.5Z" fill="#0043BD"/>
<path d="M917.995 436.718C921.358 447.535 919.389 459.718 924.153 469.995C927.315 476.816 933.262 482.315 935.103 489.605C936.843 496.493 934.512 503.916 930.423 509.727C926.334 515.537 920.641 519.999 914.931 524.227C908.679 528.858 902.186 533.376 894.82 535.88C887.472 538.377 879.598 538.754 871.846 539.11L820.463 541.466L811 513.095L844.48 499.981C847.831 498.668 851.245 497.341 854.834 497.075C861.031 496.617 868.589 498.892 872.568 494.12C873.833 492.366 874.637 490.323 874.907 488.179C878.153 471.511 875.328 453.877 880.326 437.648C882.8 429.616 889.938 413.503 899.672 412.086C909.989 410.583 915.662 429.212 917.995 436.718Z" fill="#2472FF"/>
</svg>
