<svg viewBox="0 0 710 735" fill="none" xmlns="http://www.w3.org/2000/svg">
<path d="M441.687 366.843C242.41 521.261 342.812 587.687 220.843 587.687C98.875 587.687 0 488.812 0 366.843C0 244.875 98.875 146 220.843 146C342.812 146 640.963 212.426 441.687 366.843Z" fill="#F2F2F2"/>
<path d="M416.037 490.449C402.465 504.98 386.913 517.527 369.841 527.719C369.449 527.96 369.051 528.186 368.652 528.42L341.013 503.957C341.303 503.687 341.625 503.385 341.971 503.052C362.565 483.497 464.802 346.772 471.614 313.478C471.144 316.251 477.761 425.028 416.037 490.449Z" fill="#F0F0F0"/>
<path d="M375.174 532.439C374.651 532.564 374.119 532.68 373.586 532.787L352.851 514.434C353.256 514.293 353.729 514.125 354.271 513.939C363.168 510.788 389.665 501.278 416.035 490.447C444.37 478.803 472.568 465.647 478.633 457.22C477.332 459.178 437.258 518.556 375.174 532.439Z" fill="#F0F0F0"/>
<path d="M415.654 128.58H412.701V47.6862C412.701 41.5379 411.49 35.4497 409.137 29.7694C406.784 24.089 403.336 18.9277 398.988 14.5802C394.64 10.2326 389.479 6.78395 383.799 4.43108C378.118 2.0782 372.03 0.867188 365.882 0.867188H194.498C188.349 0.867173 182.261 2.07817 176.581 4.43103C170.901 6.78389 165.739 10.2326 161.392 14.5801C157.044 18.9276 153.596 24.0889 151.243 29.7692C148.89 35.4496 147.679 41.5377 147.679 47.6861V491.475C147.679 497.623 148.89 503.711 151.243 509.392C153.595 515.072 157.044 520.233 161.392 524.581C165.739 528.929 170.9 532.377 176.581 534.73C182.261 537.083 188.349 538.294 194.498 538.294H365.882C372.03 538.294 378.118 537.083 383.799 534.73C389.479 532.377 394.64 528.929 398.988 524.581C403.335 520.234 406.784 515.072 409.137 509.392C411.49 503.712 412.701 497.623 412.701 491.475V186.161H415.654V128.58Z" fill="#3F3D56"/>
<path d="M402.735 48.0085V491.151C402.735 495.743 401.83 500.29 400.073 504.532C398.315 508.774 395.739 512.628 392.492 515.874C389.245 519.12 385.39 521.695 381.147 523.451C376.904 525.207 372.357 526.11 367.766 526.108H195.557C190.966 526.108 186.42 525.204 182.179 523.448C177.937 521.691 174.084 519.116 170.838 515.87C167.591 512.624 165.017 508.77 163.26 504.529C161.503 500.288 160.599 495.742 160.6 491.151V48.0085C160.599 43.4178 161.503 38.872 163.26 34.6307C165.017 30.3894 167.591 26.5357 170.838 23.2896C174.084 20.0435 177.937 17.4686 182.179 15.712C186.42 13.9554 190.966 13.0514 195.557 13.0518H216.455C215.429 15.5741 215.039 18.31 215.318 21.0186C215.598 23.7272 216.539 26.3256 218.058 28.5853C219.577 30.845 221.629 32.6968 224.032 33.9778C226.435 35.2587 229.115 35.9296 231.838 35.9314H330.02C332.744 35.934 335.428 35.2659 337.833 33.9862C340.238 32.7065 342.292 30.8544 343.812 28.5934C345.332 26.3324 346.273 23.7319 346.55 21.0215C346.828 18.3111 346.434 15.574 345.404 13.0518H367.766C372.357 13.0501 376.904 13.9531 381.147 15.709C385.39 17.465 389.245 20.0397 392.492 23.2859C395.739 26.5321 398.315 30.3862 400.073 34.6282C401.83 38.8702 402.735 43.4169 402.735 48.0085V48.0085Z" fill="white"/>
<path d="M349.167 278.289H197.8C195.149 278.286 192.607 277.232 190.732 275.357C188.857 273.482 187.803 270.94 187.8 268.289V263.312C187.803 260.66 188.857 258.118 190.732 256.244C192.607 254.369 195.149 253.315 197.8 253.312H349.167C351.818 253.315 354.36 254.369 356.234 256.244C358.109 258.118 359.164 260.66 359.167 263.312V268.289C359.164 270.94 358.109 273.482 356.234 275.357C354.36 277.232 351.818 278.286 349.167 278.289Z" fill="#F0F0F0"/>
<path d="M349.167 321.196H197.8C195.149 321.193 192.607 320.139 190.732 318.264C188.857 316.389 187.803 313.848 187.8 311.196V306.219C187.803 303.568 188.857 301.026 190.732 299.151C192.607 297.276 195.149 296.222 197.8 296.219H349.167C351.818 296.222 354.36 297.276 356.234 299.151C358.109 301.026 359.164 303.568 359.167 306.219V311.196C359.164 313.848 358.109 316.389 356.234 318.264C354.36 320.139 351.818 321.193 349.167 321.196V321.196Z" fill="#F0F0F0"/>
<path d="M356.739 268.692H205.372C202.588 268.689 199.919 267.582 197.951 265.613C195.982 263.645 194.875 260.976 194.872 258.192V253.215C194.875 250.431 195.982 247.762 197.951 245.794C199.919 243.825 202.588 242.718 205.372 242.715H356.739C359.523 242.718 362.191 243.825 364.16 245.794C366.128 247.762 367.236 250.431 367.239 253.215V258.192C367.236 260.976 366.128 263.645 364.16 265.613C362.191 267.582 359.523 268.689 356.739 268.692V268.692ZM205.372 244.715C203.119 244.717 200.958 245.614 199.364 247.207C197.771 248.801 196.875 250.961 196.872 253.215V258.192C196.875 260.446 197.771 262.606 199.364 264.2C200.958 265.794 203.119 266.69 205.372 266.692H356.739C358.992 266.69 361.153 265.794 362.746 264.2C364.34 262.606 365.236 260.446 365.239 258.192V253.215C365.236 250.961 364.34 248.801 362.746 247.207C361.153 245.614 358.992 244.717 356.739 244.715H205.372Z" fill="#3F3D56"/>
<path d="M356.739 311.6H205.372C202.588 311.596 199.919 310.489 197.951 308.521C195.982 306.552 194.875 303.883 194.872 301.1V296.122C194.875 293.338 195.982 290.669 197.951 288.701C199.919 286.733 202.588 285.625 205.372 285.622H356.739C359.523 285.625 362.191 286.733 364.16 288.701C366.128 290.669 367.236 293.338 367.239 296.122V301.1C367.236 303.883 366.128 306.552 364.16 308.521C362.191 310.489 359.523 311.596 356.739 311.6V311.6ZM205.372 287.622C203.119 287.625 200.958 288.521 199.364 290.114C197.771 291.708 196.875 293.869 196.872 296.122V301.1C196.875 303.353 197.771 305.514 199.364 307.107C200.958 308.701 203.119 309.597 205.372 309.6H356.739C358.992 309.597 361.153 308.701 362.746 307.107C364.34 305.514 365.236 303.353 365.239 301.1V296.122C365.236 293.869 364.34 291.708 362.746 290.114C361.153 288.521 358.992 287.625 356.739 287.622H205.372Z" fill="#3F3D56"/>
<path d="M402.735 48.0085V144.398C387.419 148.428 371.383 148.89 355.86 145.75C340.338 142.609 325.742 135.95 313.197 126.284C300.652 116.618 290.491 104.203 283.497 89.9936C276.503 75.7847 272.861 60.1607 272.853 44.3236C272.853 41.4967 272.966 38.6994 273.193 35.9314H330.02C332.744 35.934 335.428 35.2659 337.833 33.9862C340.238 32.7065 342.292 30.8544 343.812 28.5934C345.332 26.3324 346.273 23.7319 346.55 21.0215C346.828 18.3111 346.434 15.574 345.404 13.0518H367.766C372.357 13.0501 376.904 13.9531 381.147 15.709C385.39 17.465 389.245 20.0397 392.492 23.2859C395.739 26.5321 398.315 30.3862 400.073 34.6282C401.83 38.8702 402.735 43.4169 402.735 48.0085V48.0085Z" fill="#F0F0F0"/>
<path d="M247.613 520.088C247.613 522.12 247.537 524.126 247.373 526.108H195.557C190.966 526.108 186.42 525.204 182.179 523.447C177.937 521.691 174.084 519.116 170.838 515.87C167.591 512.624 165.017 508.77 163.26 504.529C161.503 500.287 160.599 495.742 160.6 491.151V443.751C171.461 442.338 182.499 443.257 192.978 446.446C203.456 449.634 213.135 455.02 221.368 462.243C229.602 469.467 236.201 478.362 240.727 488.336C245.252 498.311 247.6 509.135 247.613 520.088H247.613Z" fill="#0D6EFD"/>
<path d="M104.472 268.923L70.9229 243.264L45.2637 276.813L78.8126 302.472L104.472 268.923Z" fill="#F0F0F0"/>
<path d="M563.867 136.867C569.168 136.863 574.396 138.1 579.133 140.48C583.869 142.859 587.983 146.315 591.145 150.57L610.734 124.956L551.956 80L507 138.779L532.333 158.155C534.869 151.867 539.225 146.481 544.844 142.688C550.463 138.895 557.088 136.868 563.867 136.867V136.867Z" fill="#F0F0F0"/>
<path d="M306.26 372.937H234.397C231.746 372.934 229.204 371.879 227.33 370.004C225.455 368.13 224.4 365.588 224.397 362.937V357.959C224.4 355.308 225.455 352.766 227.33 350.891C229.204 349.017 231.746 347.962 234.397 347.959H306.26C308.911 347.962 311.453 349.017 313.327 350.891C315.202 352.766 316.257 355.308 316.26 357.959V362.937C316.257 365.588 315.202 368.13 313.327 370.004C311.453 371.879 308.911 372.934 306.26 372.937V372.937Z" fill="#0D6EFD"/>
<path d="M313.832 363.341H241.97C239.186 363.338 236.517 362.23 234.549 360.262C232.58 358.294 231.473 355.625 231.47 352.841V347.863C231.473 345.079 232.58 342.411 234.549 340.442C236.517 338.474 239.186 337.366 241.97 337.363H313.832C316.616 337.366 319.285 338.474 321.253 340.442C323.222 342.411 324.329 345.079 324.332 347.863V352.841C324.329 355.625 323.222 358.294 321.253 360.262C319.285 362.23 316.616 363.338 313.832 363.341V363.341ZM241.97 339.363C239.716 339.366 237.556 340.262 235.962 341.856C234.369 343.449 233.472 345.61 233.47 347.863V352.841C233.472 355.094 234.369 357.255 235.962 358.848C237.556 360.442 239.716 361.338 241.97 361.341H313.832C316.086 361.338 318.246 360.442 319.84 358.848C321.433 357.255 322.33 355.094 322.332 352.841V347.863C322.33 345.61 321.433 343.449 319.84 341.856C318.246 340.262 316.086 339.366 313.832 339.363H241.97Z" fill="#3F3D56"/>
<path d="M335.021 438.262C342.2 438.262 348.021 432.441 348.021 425.262C348.021 418.082 342.2 412.262 335.021 412.262C327.841 412.262 322.021 418.082 322.021 425.262C322.021 432.441 327.841 438.262 335.021 438.262Z" fill="#0D6EFD"/>
<path d="M363.201 380.765C386.653 406.706 401.335 439.377 405.162 474.138C405.936 481.59 406.073 489.216 404.49 496.577C402.892 503.739 399.405 510.343 394.392 515.702C389.818 520.793 384.549 525.47 381.292 531.584C377.859 538.029 377.772 545.326 380.194 552.133C383.158 560.461 388.937 567.227 394.818 573.648C401.349 580.777 408.244 588.078 411.062 597.566C411.403 598.716 413.167 598.119 412.826 596.971C407.925 580.463 391.81 571.171 384.058 556.324C380.441 549.396 378.889 541.336 382.192 533.977C385.08 527.542 390.508 522.714 395.184 517.6C400.094 512.229 403.847 506.348 405.755 499.267C407.706 492.024 407.867 484.376 407.287 476.937C405.844 460.077 401.76 443.55 395.184 427.959C387.777 410.124 377.374 393.688 364.424 379.361C363.622 378.474 362.404 379.885 363.201 380.765H363.201Z" fill="white"/>
<path d="M397.051 513.426C386.62 507.287 378.885 497.442 375.389 485.854C375.044 484.706 373.28 485.302 373.625 486.449C377.285 498.501 385.355 508.73 396.224 515.094C397.261 515.7 398.082 514.028 397.051 513.426V513.426Z" fill="white"/>
<path d="M386.061 411.899C383.954 412.917 381.627 413.396 379.289 413.292C376.951 413.188 374.675 412.505 372.666 411.305C371.638 410.686 370.818 412.359 371.84 412.973C374.065 414.289 376.579 415.04 379.162 415.161C381.745 415.281 384.318 414.767 386.656 413.663C386.885 413.578 387.073 413.408 387.182 413.189C387.29 412.97 387.311 412.718 387.241 412.484C387.161 412.25 386.992 412.058 386.771 411.949C386.55 411.839 386.295 411.821 386.061 411.899V411.899Z" fill="white"/>
<path d="M242.194 455.634C242.825 456.039 243.456 456.443 244.088 456.864C252.545 462.347 260.541 468.508 268 475.287C268.585 475.802 269.17 476.332 269.739 476.863C287.534 493.385 302.106 513.068 312.716 534.91C316.93 543.605 320.476 552.608 323.324 561.842C327.256 574.594 330.505 588.733 338.194 599.135C338.984 600.229 339.841 601.273 340.761 602.261L409.641 601.821C409.797 601.741 409.954 601.677 410.111 601.597L412.862 601.706C412.748 601.219 412.62 600.717 412.506 600.231C412.441 599.948 412.361 599.666 412.297 599.383C412.249 599.195 412.2 599.007 412.167 598.834C412.151 598.771 412.135 598.709 412.119 598.661C412.087 598.489 412.038 598.332 412.006 598.175C411.296 595.366 410.566 592.558 409.815 589.75C409.814 589.734 409.814 589.734 409.799 589.718C404.02 568.334 396.404 547.245 385.83 527.982C385.511 527.403 385.194 526.808 384.844 526.228C380.029 517.572 374.515 509.324 368.357 501.566C364.971 497.328 361.373 493.265 357.576 489.392C347.747 479.403 336.408 471.022 323.974 464.556C299.186 451.67 270.553 446.856 244.202 454.993C243.528 455.201 242.868 455.41 242.194 455.634Z" fill="#0D6EFD"/>
<path d="M242.355 456.507C276.698 463.1 308.091 480.347 332.075 505.797C337.18 511.281 341.881 517.288 345.048 524.117C348.085 530.798 349.276 538.17 348.5 545.468C347.913 552.286 346.522 559.193 347.603 566.036C348.742 573.248 353.066 579.127 359.098 583.104C366.478 587.969 375.167 589.892 383.728 591.478C393.234 593.238 403.136 594.916 411.098 600.796C412.063 601.508 413.112 599.969 412.148 599.258C398.296 589.028 379.835 591.312 364.706 584.124C357.647 580.77 351.556 575.269 349.762 567.405C348.193 560.528 349.621 553.405 350.275 546.506C350.962 539.262 350.418 532.306 347.678 525.504C344.875 518.546 340.399 512.343 335.457 506.752C324.155 494.16 310.943 483.422 296.305 474.933C279.653 465.153 261.451 458.292 242.486 454.65C241.312 454.425 241.188 456.284 242.355 456.507Z" fill="white"/>
<path d="M324.835 497.147C328.559 492.544 330.525 486.766 330.382 480.847C330.24 474.928 327.997 469.252 324.056 464.833C323.256 463.942 321.833 465.144 322.635 466.036C326.312 470.144 328.4 475.432 328.522 480.944C328.644 486.456 326.791 491.831 323.298 496.097C322.54 497.025 324.082 498.07 324.835 497.147Z" fill="white"/>
<path d="M349.254 542.049C337.229 543.428 325.126 540.225 315.358 533.077C314.391 532.368 313.341 533.906 314.307 534.614C324.486 542.034 337.088 545.342 349.598 543.879C350.791 543.739 350.44 541.91 349.254 542.049V542.049Z" fill="white"/>
<path d="M279.352 467.603C278.282 469.685 276.712 471.468 274.783 472.793C272.854 474.117 270.626 474.942 268.299 475.193C267.106 475.318 267.458 477.148 268.644 477.023C271.213 476.734 273.673 475.82 275.807 474.361C277.942 472.902 279.687 470.943 280.889 468.654C281.021 468.447 281.069 468.199 281.023 467.959C280.978 467.718 280.843 467.504 280.646 467.36C280.442 467.222 280.191 467.17 279.949 467.215C279.706 467.261 279.492 467.4 279.352 467.603H279.352Z" fill="white"/>
<path d="M709.395 645.917C709.395 673.024 609.511 734.637 477.827 734.637C346.142 734.637 232 673.024 232 645.917C232 639.137 243.181 647.557 255.236 641.692C290.332 624.59 374.019 637.196 469.003 636.493C471.933 636.467 474.874 636.453 477.827 636.453C609.511 636.453 709.395 618.811 709.395 645.917Z" fill="#3F3D56"/>
<path opacity="0.1" d="M709.395 645.917C709.395 673.024 609.511 734.637 477.827 734.637C346.142 734.637 232 673.024 232 645.917C232 639.137 243.181 647.557 255.236 641.692C290.332 624.59 374.019 637.196 469.003 636.493C471.933 636.467 474.874 636.453 477.827 636.453C609.511 636.453 709.395 618.811 709.395 645.917Z" fill="black"/>
<path d="M708.867 645.411C708.867 672.517 602.118 694.503 470.434 694.503C338.749 694.503 232 672.517 232 645.411C232 638.631 238.663 632.183 250.718 626.318C285.815 609.216 366.626 597.062 461.609 596.359C464.54 596.333 467.481 596.319 470.434 596.319C602.118 596.319 708.867 618.304 708.867 645.411Z" fill="#3F3D56"/>
<path d="M482.786 601.817C514.308 601.817 539.862 572.836 539.862 537.086C539.862 501.336 514.308 472.355 482.786 472.355C451.263 472.355 425.709 501.336 425.709 537.086C425.709 572.836 451.263 601.817 482.786 601.817Z" fill="#36334A"/>
<path d="M507.86 419.963L422.08 422.602C422.08 422.602 334.08 505.19 396.765 527.625C396.765 527.625 486.085 531.477 504.56 516.96C504.56 516.96 527.655 425.902 507.86 419.963ZM503.901 444.377L412.182 450.316C412.182 450.316 418.78 427.881 445.174 427.881C471.568 427.881 501.261 421.942 503.901 435.799C506.54 449.656 503.901 444.377 503.901 444.377Z" fill="#3F3D56"/>
<path d="M595.619 472.091L482.785 468.132L509.179 356.618C509.179 356.618 614.754 348.699 612.115 375.753C609.476 402.807 595.619 472.091 595.619 472.091Z" fill="#36334A"/>
<path d="M486.691 525.397C486.691 525.397 418.78 537.416 394.366 501.784C369.952 466.152 486.744 485.288 486.744 485.288L496.642 512.342L486.691 525.397Z" fill="#36334A"/>
<path d="M466.289 676.644C483.417 676.644 497.302 662.759 497.302 645.631C497.302 628.503 483.417 614.618 466.289 614.618C449.161 614.618 435.276 628.503 435.276 645.631C435.276 662.759 449.161 676.644 466.289 676.644Z" fill="#36334A"/>
<path d="M469.258 668.065C480.009 668.065 488.724 658.02 488.724 645.63C488.724 633.24 480.009 623.195 469.258 623.195C458.508 623.195 449.793 633.24 449.793 645.63C449.793 658.02 458.508 668.065 469.258 668.065Z" fill="#3F3D56"/>
<path d="M635.87 353.319C635.87 353.319 610.136 338.802 608.816 373.114L587.041 532.797H596.279L621.353 361.897C621.353 361.897 633.89 363.877 635.87 363.877C637.849 363.877 635.87 353.319 635.87 353.319Z" fill="#3F3D56"/>
<path d="M661.512 370.938C661.277 371.786 660.863 372.573 660.298 373.247C659.734 373.922 659.031 374.468 658.238 374.849C657.446 375.23 656.58 375.437 655.701 375.456C654.822 375.476 653.948 375.307 653.14 374.961L623.287 362.198L628.703 350.27L658.124 363.67C659.462 364.279 660.538 365.346 661.159 366.679C661.78 368.011 661.905 369.522 661.512 370.938V370.938Z" fill="#36334A"/>
<path d="M480.146 521.58C480.146 521.58 432.637 516.301 419.44 561.83C406.244 607.36 407.563 642.331 396.346 639.692C385.128 637.053 361.374 627.815 361.374 627.815L363.354 641.672C363.354 641.672 404.924 662.787 411.522 640.352C418.121 617.917 422.08 535.436 459.691 537.416C497.302 539.395 503.901 535.436 503.901 535.436L480.146 521.58Z" fill="#3F3D56"/>
<path d="M364.673 650.909L305.947 614.617C305.947 614.617 302.647 601.42 340.259 596.142C340.259 596.142 411.368 621.011 404.517 630.351C397.665 639.691 374.571 654.208 364.673 650.909Z" fill="#36334A"/>
<path d="M473.703 442.323C475.511 444.293 508.788 475.953 508.788 475.953C508.788 475.953 505.482 498.051 469.877 500.794L410.537 505.365C410.537 505.365 399.321 546.526 385.985 559.68C372.649 572.834 378.769 573.567 373.764 579.979C368.76 586.39 375.784 588.108 368.187 588.731C360.59 589.354 344.893 580.169 344.723 573.064C344.552 565.959 348.984 561.889 350.953 560.081C352.923 558.272 357.918 540.977 360.913 537.319C363.908 533.662 375.244 489.667 375.244 489.667C375.244 489.667 386.56 468.383 402.247 466.685C417.934 464.987 435.387 457.357 435.387 457.357" fill="#2F2E41"/>
<path opacity="0.1" d="M473.703 442.323C475.511 444.293 508.788 475.953 508.788 475.953C508.788 475.953 505.482 498.051 469.877 500.794L410.537 505.365C410.537 505.365 399.321 546.526 385.985 559.68C372.649 572.834 378.769 573.567 373.764 579.979C368.76 586.39 375.784 588.108 368.187 588.731C360.59 589.354 344.893 580.169 344.723 573.064C344.552 565.959 348.984 561.889 350.953 560.081C352.923 558.272 357.918 540.977 360.913 537.319C363.908 533.662 375.244 489.667 375.244 489.667C375.244 489.667 386.56 468.383 402.247 466.685C417.934 464.987 435.387 457.357 435.387 457.357" fill="black"/>
<path d="M416.141 336.654C416.141 336.654 403.653 302.722 395.106 313.534C386.558 324.346 408.859 342.101 408.859 342.101L416.141 336.654Z" fill="#A0616A"/>
<path d="M481.925 354.367L474.815 351.359C474.815 351.359 461.764 360.179 460.904 363.043C460.045 365.906 461.907 364.904 456.78 367.424C451.654 369.943 437.649 376.042 435.788 377.044C433.926 378.046 412.848 340.754 417.889 335.399C417.889 335.399 408.454 338.801 404.158 337.512C404.158 337.512 414.881 389.5 416.513 396.545C418.145 403.59 421.953 404.42 429.055 404.679C436.157 404.937 479.287 392.283 479.287 392.283L481.925 354.367Z" fill="#0D6EFD"/>
<path d="M370.68 577.802C370.68 577.802 370.32 585.178 371.551 586.026C372.782 586.874 380.391 604.819 368.672 606.55C356.952 608.281 350.517 606.028 347.683 606.981C344.849 607.934 298.133 604.08 298.492 596.704C298.852 589.329 322.21 591.255 322.21 591.255C322.21 591.255 345.347 580.324 349.679 573.506C354.011 566.687 370.68 577.802 370.68 577.802Z" fill="#2F2E41"/>
<path opacity="0.1" d="M370.68 577.802C370.68 577.802 370.32 585.178 371.551 586.026C372.782 586.874 380.391 604.819 368.672 606.55C356.952 608.281 350.517 606.028 347.683 606.981C344.849 607.934 298.133 604.08 298.492 596.704C298.852 589.329 322.21 591.255 322.21 591.255C322.21 591.255 345.347 580.324 349.679 573.506C354.011 566.687 370.68 577.802 370.68 577.802Z" fill="black"/>
<path d="M394.785 616.653C394.785 616.653 387.68 647.609 382.468 647.294C377.256 646.978 340.461 629.071 335.934 625.525C330.121 620.971 330.351 612.924 337.023 614.614C343.695 616.304 362.568 614.788 365.775 611.38L374.024 602.618L394.785 616.653Z" fill="#2F2E41"/>
<path d="M467.627 444.661C469.574 446.494 528.792 496.73 528.792 496.73C528.792 496.73 527.101 519.01 491.79 524.333L432.939 533.206C432.939 533.206 424.744 575.073 412.4 589.162C400.056 603.25 406.213 603.537 401.688 610.295C397.162 617.054 404.293 618.257 396.761 619.43C389.229 620.604 372.907 612.584 372.22 605.51C371.533 598.437 375.658 594.055 377.49 592.108C379.323 590.161 383.048 572.549 385.769 568.683C388.49 564.817 396.599 520.115 396.599 520.115C396.599 520.115 406.337 498.065 421.859 495.231C437.381 492.397 454.233 483.519 454.233 483.519" fill="#2F2E41"/>
<path d="M522.137 335.828C537.645 335.828 550.216 323.257 550.216 307.749C550.216 292.241 537.645 279.67 522.137 279.67C506.629 279.67 494.058 292.241 494.058 307.749C494.058 323.257 506.629 335.828 522.137 335.828Z" fill="#A0616A"/>
<path d="M536.855 325.276C536.855 325.276 532.644 342.43 539.058 351.222C545.472 360.015 496.158 355.829 496.158 355.829C496.158 355.829 509.506 327.994 504.581 321.522C499.656 315.049 536.855 325.276 536.855 325.276Z" fill="#A0616A"/>
<path d="M473.821 352.247C467.864 358.576 469.894 394.459 469.894 394.459L473.7 426.505C473.7 426.505 469.146 432.318 470.635 434.638C472.124 436.958 474.558 439.249 469.861 440.337C465.165 441.424 454.339 443.17 457.804 448.268C458.936 449.712 460.147 451.092 461.433 452.401C462.538 453.569 463.851 454.924 465.339 456.435C468.822 459.953 473.252 464.279 478.167 468.841C479.559 470.142 480.986 471.455 482.448 472.779C501.197 489.741 524.512 507.694 529.336 499.078C537.413 484.645 543.027 482.584 542.656 470.298C542.284 458.013 552.683 426.484 552.683 426.484C552.683 426.484 564.773 372.675 547.735 356.636L545.071 352.375C543.835 350.393 542.006 348.851 539.845 347.967C537.683 347.082 535.298 346.9 533.028 347.446C524.712 349.433 511.963 352.178 506.44 351.735C497.906 351.047 499.777 347.538 499.777 347.538C499.777 347.538 479.779 345.919 473.821 352.247Z" fill="#0D6EFD"/>
<path d="M447.492 467.025C447.492 467.025 412.754 475.642 417.85 487.785C422.947 499.928 453.018 477.736 453.018 477.736L447.492 467.025Z" fill="#A0616A"/>
<path d="M537.677 318.022C536.986 317.185 537.67 315.961 538.272 315.057C541.496 310.215 542.111 303.326 538.564 298.715C537.166 296.998 535.418 295.6 533.436 294.612C530.654 293.138 527.616 292.205 524.485 291.865C522.82 291.841 521.173 291.516 519.622 290.907C518.643 290.41 514.022 288.792 513.03 288.321C510.85 287.284 507.816 287.732 506.419 285.763C505.083 283.879 506.331 281.298 507.629 279.388C510.587 275.036 518.068 271.429 523.205 270.287C527.103 269.42 531.171 270.639 534.783 272.341C538.948 274.407 542.898 276.878 546.578 279.72C551.631 283.463 556.609 287.612 559.644 293.121C562.679 298.629 563.41 305.803 559.982 311.076C559.268 312.174 558.394 313.165 557.726 314.292C556.094 317.04 555.8 320.364 554.647 323.345C553.789 325.523 552.485 327.498 550.817 329.141C549.149 330.784 547.155 332.06 544.964 332.885C541.453 334.183 537.134 334.542 535.059 337.659L534.091 331.161C533.838 330.341 533.874 329.46 534.193 328.664C534.512 327.868 535.094 327.205 535.843 326.787L540.817 322.597C541.808 321.923 542.561 320.953 542.967 319.825C544.043 315.336 538.83 319.419 537.677 318.022Z" fill="#2F2E41"/>
<path opacity="0.1" d="M487.874 441.684L465.339 456.435C469.808 460.954 475.844 466.802 482.447 472.779C488.702 469.412 495.081 465.767 500.788 462.104C521.666 448.704 539.568 415.056 547.588 398.733C555.608 382.41 549.08 369.838 549.08 369.838C543.767 367.484 538.145 365.902 532.384 365.14C521.932 363.564 487.874 441.684 487.874 441.684Z" fill="black"/>
<path opacity="0.1" d="M484.896 437.045L461.433 452.401C462.537 453.569 463.85 454.925 465.338 456.436C468.821 459.953 473.251 464.28 478.166 468.842C484.831 465.282 491.708 461.381 497.809 457.465C518.687 444.064 536.589 410.417 544.609 394.094C552.629 377.771 531.05 383.626 531.05 383.626C531.05 383.626 542.248 378.558 531.795 376.982C521.343 375.406 484.896 437.045 484.896 437.045Z" fill="black"/>
<path d="M548.049 367.031C548.049 367.031 554.577 379.604 546.557 395.927C538.537 412.249 520.635 445.897 499.757 459.297C478.879 472.698 449.009 485.897 449.009 485.897C449.009 485.897 446.175 470.375 441.393 468.628L486.843 438.878C486.843 438.878 520.901 360.757 531.354 362.333C537.114 363.096 542.736 364.678 548.049 367.031Z" fill="#0D6EFD"/>
<path d="M455.732 532.797V609.999H464.31V531.477L455.732 532.797Z" fill="#3F3D56"/>
<path d="M468.269 580.306C468.269 580.306 484.765 644.971 474.207 654.208C474.207 654.208 460.35 613.298 449.793 618.577L453.092 580.306H468.269Z" fill="#36334A"/>
<path d="M596.279 439.759L510.499 442.398C510.499 442.398 434.617 516.301 497.302 538.736C497.302 538.736 574.504 551.273 592.98 536.756C592.98 536.756 616.074 445.697 596.279 439.759ZM592.32 464.173L500.601 470.112C500.601 470.112 507.2 447.677 533.594 447.677C559.988 447.677 589.681 441.738 592.32 455.595C594.959 469.452 592.32 464.173 592.32 464.173V464.173Z" fill="#3F3D56"/>
<path d="M576.813 676.644C624.37 676.644 662.923 632.921 662.923 578.986C662.923 525.052 624.37 481.329 576.813 481.329C529.256 481.329 490.703 525.052 490.703 578.986C490.703 632.921 529.256 676.644 576.813 676.644Z" fill="#36334A"/>
<path d="M580.772 651.569C616.668 651.569 645.767 619.073 645.767 578.986C645.767 538.9 616.668 506.403 580.772 506.403C544.877 506.403 515.777 538.9 515.777 578.986C515.777 619.073 544.877 651.569 580.772 651.569Z" fill="#3F3D56"/>
<path d="M597.599 577.996C597.597 576.73 597.471 575.467 597.222 574.225L645.767 549.952L642.468 542.694L593.429 566.585C592.935 566.076 592.389 565.62 591.8 565.224L591.838 565.231L606.177 493.866L593.493 493.577L585.061 563.809L585.87 563.979C585.215 564.113 584.579 564.331 583.979 564.625L541.567 521.091L535.573 529.497L579.148 569.586C578.055 571.685 577.399 573.983 577.218 576.343L515.778 601.42L514.458 611.978L578.503 585.043C579.1 586.525 579.947 587.893 581.006 589.089L561.307 656.188H568.565L585.1 591.82C585.834 592.056 586.6 592.178 587.371 592.183C588.86 592.169 590.314 591.733 591.565 590.926L625.972 636.392L636.529 629.134L596.215 585.098C597.141 582.845 597.611 580.431 597.599 577.996Z" fill="#36334A"/>
<path d="M691.911 633.103C691.911 650.52 681.558 656.6 668.785 656.6C668.49 656.6 668.194 656.596 667.9 656.59C667.308 656.577 666.721 656.549 666.142 656.509C654.614 655.694 645.66 649.3 645.66 633.103C645.66 616.344 667.076 595.194 668.69 593.625L668.692 593.623C668.754 593.561 668.785 593.531 668.785 593.531C668.785 593.531 691.911 615.688 691.911 633.103Z" fill="#2271FF"/>
<path d="M667.942 653.936L676.401 642.119L667.921 655.234L667.9 656.59C667.308 656.577 666.721 656.549 666.142 656.509L667.052 639.086L667.046 638.95L667.061 638.926L667.148 637.279L658.647 624.131L667.174 636.044L667.195 636.393L667.883 623.229L660.606 609.643L667.972 620.92L668.689 593.625L668.691 593.531V593.623L668.572 615.145L675.817 606.612L668.542 616.999L668.351 628.786L675.117 617.474L668.323 630.521L668.217 637.074L678.035 621.328L668.178 639.36L667.942 653.936Z" fill="#3F3D56"/>
</svg>
